<svg width="493" height="150" viewBox="0 0 493 150" fill="none" xmlns="http://www.w3.org/2000/svg">
<path d="M19.884 24.132C19.276 24.132 18.708 24.024 18.18 23.808C17.652 23.584 17.188 23.276 16.788 22.884C16.388 22.484 16.076 22.024 15.852 21.504C15.636 20.976 15.528 20.408 15.528 19.8C15.528 19.192 15.636 18.628 15.852 18.108C16.076 17.58 16.388 17.12 16.788 16.728C17.188 16.328 17.652 16.02 18.18 15.804C18.708 15.58 19.276 15.468 19.884 15.468C20.324 15.468 20.744 15.524 21.144 15.636C21.552 15.74 21.928 15.896 22.272 16.104C22.624 16.304 22.936 16.552 23.208 16.848L22.596 17.496C22.268 17.12 21.864 16.832 21.384 16.632C20.904 16.424 20.404 16.32 19.884 16.32C19.396 16.32 18.944 16.408 18.528 16.584C18.112 16.76 17.748 17.008 17.436 17.328C17.132 17.64 16.892 18.008 16.716 18.432C16.548 18.848 16.464 19.304 16.464 19.8C16.464 20.288 16.548 20.744 16.716 21.168C16.892 21.592 17.136 21.964 17.448 22.284C17.76 22.596 18.124 22.84 18.54 23.016C18.964 23.192 19.42 23.28 19.908 23.28C20.428 23.28 20.924 23.18 21.396 22.98C21.868 22.772 22.264 22.488 22.584 22.128L23.184 22.752C22.904 23.04 22.588 23.288 22.236 23.496C21.892 23.704 21.52 23.864 21.12 23.976C20.72 24.08 20.308 24.132 19.884 24.132ZM26.3122 24.108C25.8722 24.108 25.4842 24.032 25.1482 23.88C24.8202 23.728 24.5602 23.516 24.3682 23.244C24.1842 22.972 24.0922 22.656 24.0922 22.296C24.0922 21.728 24.3082 21.28 24.7402 20.952C25.1722 20.624 25.7562 20.46 26.4922 20.46C27.1402 20.46 27.7282 20.596 28.2562 20.868V20.076C28.2562 19.596 28.1202 19.236 27.8482 18.996C27.5762 18.748 27.1802 18.624 26.6602 18.624C26.3642 18.624 26.0642 18.668 25.7602 18.756C25.4642 18.836 25.1362 18.968 24.7762 19.152L24.4402 18.468C24.8722 18.26 25.2722 18.108 25.6402 18.012C26.0082 17.916 26.3762 17.868 26.7442 17.868C27.5042 17.868 28.0882 18.048 28.4962 18.408C28.9122 18.768 29.1202 19.284 29.1202 19.956V24H28.2562V23.412C27.9842 23.644 27.6842 23.82 27.3562 23.94C27.0362 24.052 26.6882 24.108 26.3122 24.108ZM24.9442 22.272C24.9442 22.608 25.0842 22.884 25.3642 23.1C25.6522 23.308 26.0202 23.412 26.4682 23.412C26.8282 23.412 27.1562 23.356 27.4522 23.244C27.7482 23.132 28.0162 22.956 28.2562 22.716V21.588C28.0082 21.42 27.7442 21.3 27.4642 21.228C27.1842 21.148 26.8682 21.108 26.5162 21.108C26.0362 21.108 25.6522 21.216 25.3642 21.432C25.0842 21.64 24.9442 21.92 24.9442 22.272ZM30.6037 26.448V17.988H31.4797V18.636C31.9997 18.14 32.6477 17.892 33.4237 17.892C33.9917 17.892 34.5037 18.032 34.9597 18.312C35.4157 18.584 35.7757 18.952 36.0397 19.416C36.3117 19.88 36.4477 20.404 36.4477 20.988C36.4477 21.572 36.3117 22.1 36.0397 22.572C35.7757 23.036 35.4157 23.408 34.9597 23.688C34.5037 23.96 33.9877 24.096 33.4117 24.096C33.0597 24.096 32.7197 24.036 32.3917 23.916C32.0637 23.796 31.7637 23.624 31.4917 23.4V26.448H30.6037ZM33.3397 23.316C33.7637 23.316 34.1437 23.216 34.4797 23.016C34.8157 22.808 35.0797 22.532 35.2717 22.188C35.4717 21.836 35.5717 21.44 35.5717 21C35.5717 20.56 35.4717 20.164 35.2717 19.812C35.0797 19.46 34.8157 19.184 34.4797 18.984C34.1437 18.776 33.7637 18.672 33.3397 18.672C32.9637 18.672 32.6117 18.748 32.2837 18.9C31.9637 19.044 31.6997 19.248 31.4917 19.512V22.488C31.6997 22.744 31.9677 22.948 32.2957 23.1C32.6237 23.244 32.9717 23.316 33.3397 23.316ZM37.6818 24V17.988H38.5698V24H37.6818ZM38.1258 16.836C37.9658 16.836 37.8258 16.776 37.7058 16.656C37.5858 16.536 37.5258 16.396 37.5258 16.236C37.5258 16.068 37.5858 15.928 37.7058 15.816C37.8258 15.696 37.9658 15.636 38.1258 15.636C38.2938 15.636 38.4338 15.696 38.5458 15.816C38.6658 15.928 38.7258 16.068 38.7258 16.236C38.7258 16.396 38.6658 16.536 38.5458 16.656C38.4338 16.776 38.2938 16.836 38.1258 16.836ZM42.4481 24.12C41.9281 24.12 41.5281 23.996 41.2481 23.748C40.9681 23.5 40.8281 23.14 40.8281 22.668V18.744H39.5321V17.988H40.8281V16.464L41.7041 16.236V17.988H43.5161V18.744H41.7041V22.44C41.7041 22.76 41.7761 22.992 41.9201 23.136C42.0641 23.272 42.3001 23.34 42.6281 23.34C42.7961 23.34 42.9441 23.328 43.0721 23.304C43.2081 23.28 43.3521 23.24 43.5041 23.184V23.964C43.3521 24.02 43.1801 24.06 42.9881 24.084C42.8041 24.108 42.6241 24.12 42.4481 24.12ZM46.3629 24.108C45.9229 24.108 45.5349 24.032 45.1989 23.88C44.8709 23.728 44.6109 23.516 44.4189 23.244C44.2349 22.972 44.1429 22.656 44.1429 22.296C44.1429 21.728 44.3589 21.28 44.7909 20.952C45.2229 20.624 45.8069 20.46 46.5429 20.46C47.1909 20.46 47.7789 20.596 48.3069 20.868V20.076C48.3069 19.596 48.1709 19.236 47.8989 18.996C47.6269 18.748 47.2309 18.624 46.7109 18.624C46.4149 18.624 46.1149 18.668 45.8109 18.756C45.5149 18.836 45.1869 18.968 44.8269 19.152L44.4909 18.468C44.9229 18.26 45.3229 18.108 45.6909 18.012C46.0589 17.916 46.4269 17.868 46.7949 17.868C47.5549 17.868 48.1389 18.048 48.5469 18.408C48.9629 18.768 49.1709 19.284 49.1709 19.956V24H48.3069V23.412C48.0349 23.644 47.7349 23.82 47.4069 23.94C47.0869 24.052 46.7389 24.108 46.3629 24.108ZM44.9949 22.272C44.9949 22.608 45.1349 22.884 45.4149 23.1C45.7029 23.308 46.0709 23.412 46.5189 23.412C46.8789 23.412 47.2069 23.356 47.5029 23.244C47.7989 23.132 48.0669 22.956 48.3069 22.716V21.588C48.0589 21.42 47.7949 21.3 47.5149 21.228C47.2349 21.148 46.9189 21.108 46.5669 21.108C46.0869 21.108 45.7029 21.216 45.4149 21.432C45.1349 21.64 44.9949 21.92 44.9949 22.272ZM50.6544 24V15.6L51.5424 15.396V24H50.6544Z" fill="black"/>
<path d="M12.924 64V55.6H13.848L18.9 62.416V55.6H19.776V64H18.96L13.8 57.004V64H12.924ZM23.2301 64.108C22.7901 64.108 22.4021 64.032 22.0661 63.88C21.7381 63.728 21.4781 63.516 21.2861 63.244C21.1021 62.972 21.0101 62.656 21.0101 62.296C21.0101 61.728 21.2261 61.28 21.6581 60.952C22.0901 60.624 22.6741 60.46 23.4101 60.46C24.0581 60.46 24.6461 60.596 25.1741 60.868V60.076C25.1741 59.596 25.0381 59.236 24.7661 58.996C24.4941 58.748 24.0981 58.624 23.5781 58.624C23.2821 58.624 22.9821 58.668 22.6781 58.756C22.3821 58.836 22.0541 58.968 21.6941 59.152L21.3581 58.468C21.7901 58.26 22.1901 58.108 22.5581 58.012C22.9261 57.916 23.2941 57.868 23.6621 57.868C24.4221 57.868 25.0061 58.048 25.4141 58.408C25.8301 58.768 26.0381 59.284 26.0381 59.956V64H25.1741V63.412C24.9021 63.644 24.6021 63.82 24.2741 63.94C23.9541 64.052 23.6061 64.108 23.2301 64.108ZM21.8621 62.272C21.8621 62.608 22.0021 62.884 22.2821 63.1C22.5701 63.308 22.9381 63.412 23.3861 63.412C23.7461 63.412 24.0741 63.356 24.3701 63.244C24.6661 63.132 24.9341 62.956 25.1741 62.716V61.588C24.9261 61.42 24.6621 61.3 24.3821 61.228C24.1021 61.148 23.7861 61.108 23.4341 61.108C22.9541 61.108 22.5701 61.216 22.2821 61.432C22.0021 61.64 21.8621 61.92 21.8621 62.272ZM29.7098 64.12C29.1898 64.12 28.7898 63.996 28.5098 63.748C28.2298 63.5 28.0898 63.14 28.0898 62.668V58.744H26.7938V57.988H28.0898V56.464L28.9658 56.236V57.988H30.7778V58.744H28.9658V62.44C28.9658 62.76 29.0378 62.992 29.1818 63.136C29.3258 63.272 29.5618 63.34 29.8898 63.34C30.0578 63.34 30.2058 63.328 30.3338 63.304C30.4698 63.28 30.6138 63.24 30.7658 63.184V63.964C30.6138 64.02 30.4418 64.06 30.2498 64.084C30.0658 64.108 29.8858 64.12 29.7098 64.12ZM31.7287 64V57.988H32.6167V64H31.7287ZM32.1727 56.836C32.0127 56.836 31.8727 56.776 31.7527 56.656C31.6327 56.536 31.5727 56.396 31.5727 56.236C31.5727 56.068 31.6327 55.928 31.7527 55.816C31.8727 55.696 32.0127 55.636 32.1727 55.636C32.3407 55.636 32.4807 55.696 32.5927 55.816C32.7127 55.928 32.7727 56.068 32.7727 56.236C32.7727 56.396 32.7127 56.536 32.5927 56.656C32.4807 56.776 32.3407 56.836 32.1727 56.836ZM36.927 64.12C36.359 64.12 35.839 63.984 35.367 63.712C34.903 63.432 34.535 63.056 34.263 62.584C33.991 62.112 33.855 61.584 33.855 61C33.855 60.416 33.991 59.888 34.263 59.416C34.535 58.944 34.903 58.572 35.367 58.3C35.839 58.02 36.359 57.88 36.927 57.88C37.503 57.88 38.023 58.02 38.487 58.3C38.951 58.572 39.319 58.944 39.591 59.416C39.863 59.888 39.999 60.416 39.999 61C39.999 61.584 39.863 62.112 39.591 62.584C39.319 63.056 38.951 63.432 38.487 63.712C38.023 63.984 37.503 64.12 36.927 64.12ZM36.927 63.328C37.335 63.328 37.703 63.224 38.031 63.016C38.367 62.808 38.631 62.528 38.823 62.176C39.023 61.824 39.123 61.432 39.123 61C39.123 60.56 39.023 60.168 38.823 59.824C38.631 59.472 38.367 59.192 38.031 58.984C37.703 58.776 37.335 58.672 36.927 58.672C36.519 58.672 36.147 58.776 35.811 58.984C35.483 59.192 35.219 59.472 35.019 59.824C34.827 60.168 34.731 60.56 34.731 61C34.731 61.432 34.827 61.824 35.019 62.176C35.219 62.528 35.483 62.808 35.811 63.016C36.147 63.224 36.519 63.328 36.927 63.328ZM41.2326 64V57.988H42.1206V58.696C42.5926 58.144 43.2246 57.868 44.0166 57.868C44.4726 57.868 44.8726 57.968 45.2166 58.168C45.5686 58.36 45.8406 58.632 46.0326 58.984C46.2326 59.328 46.3326 59.732 46.3326 60.196V64H45.4566V60.376C45.4566 59.84 45.3046 59.42 45.0006 59.116C44.7046 58.804 44.2966 58.648 43.7766 58.648C43.4166 58.648 43.0966 58.728 42.8166 58.888C42.5366 59.048 42.3046 59.276 42.1206 59.572V64H41.2326ZM49.7385 64.12C49.2425 64.12 48.7745 64.04 48.3345 63.88C47.9025 63.712 47.5265 63.48 47.2065 63.184L47.7465 62.608C48.0265 62.864 48.3345 63.064 48.6705 63.208C49.0065 63.344 49.3505 63.412 49.7025 63.412C50.1825 63.412 50.5745 63.312 50.8785 63.112C51.1825 62.912 51.3345 62.652 51.3345 62.332C51.3345 62.068 51.2425 61.864 51.0585 61.72C50.8825 61.568 50.6025 61.464 50.2185 61.408L49.1745 61.264C48.5745 61.176 48.1265 60.996 47.8305 60.724C47.5425 60.452 47.3985 60.084 47.3985 59.62C47.3985 59.284 47.4945 58.984 47.6865 58.72C47.8785 58.456 48.1425 58.248 48.4785 58.096C48.8225 57.944 49.2145 57.868 49.6545 57.868C50.0945 57.868 50.5065 57.932 50.8905 58.06C51.2745 58.188 51.6505 58.388 52.0185 58.66L51.5505 59.26C51.2145 59.028 50.8865 58.86 50.5665 58.756C50.2545 58.644 49.9345 58.588 49.6065 58.588C49.1905 58.588 48.8545 58.68 48.5985 58.864C48.3425 59.048 48.2145 59.288 48.2145 59.584C48.2145 59.856 48.3025 60.064 48.4785 60.208C48.6545 60.344 48.9385 60.44 49.3305 60.496L50.3745 60.64C50.9745 60.72 51.4225 60.896 51.7185 61.168C52.0225 61.44 52.1745 61.812 52.1745 62.284C52.1745 62.628 52.0665 62.94 51.8505 63.22C51.6345 63.5 51.3425 63.72 50.9745 63.88C50.6145 64.04 50.2025 64.12 49.7385 64.12Z" fill="black"/>
<path d="M12.232 104L10.42 95.6H11.356L12.784 102.536L14.86 95.6H15.76L17.836 102.512L19.276 95.6H20.176L18.364 104H17.428L15.304 96.884L13.168 104H12.232ZM23.595 104.12C23.027 104.12 22.507 103.984 22.035 103.712C21.571 103.432 21.203 103.056 20.931 102.584C20.659 102.112 20.523 101.584 20.523 101C20.523 100.416 20.659 99.888 20.931 99.416C21.203 98.944 21.571 98.572 22.035 98.3C22.507 98.02 23.027 97.88 23.595 97.88C24.171 97.88 24.691 98.02 25.155 98.3C25.619 98.572 25.987 98.944 26.259 99.416C26.531 99.888 26.667 100.416 26.667 101C26.667 101.584 26.531 102.112 26.259 102.584C25.987 103.056 25.619 103.432 25.155 103.712C24.691 103.984 24.171 104.12 23.595 104.12ZM23.595 103.328C24.003 103.328 24.371 103.224 24.699 103.016C25.035 102.808 25.299 102.528 25.491 102.176C25.691 101.824 25.791 101.432 25.791 101C25.791 100.56 25.691 100.168 25.491 99.824C25.299 99.472 25.035 99.192 24.699 98.984C24.371 98.776 24.003 98.672 23.595 98.672C23.187 98.672 22.815 98.776 22.479 98.984C22.151 99.192 21.887 99.472 21.687 99.824C21.495 100.168 21.399 100.56 21.399 101C21.399 101.432 21.495 101.824 21.687 102.176C21.887 102.528 22.151 102.808 22.479 103.016C22.815 103.224 23.187 103.328 23.595 103.328ZM27.9005 104V97.988H28.7885V98.84C28.9725 98.528 29.2045 98.288 29.4845 98.12C29.7725 97.944 30.1005 97.856 30.4685 97.856C30.6765 97.856 30.8645 97.884 31.0325 97.94V98.756C30.9285 98.716 30.8245 98.688 30.7205 98.672C30.6165 98.656 30.5125 98.648 30.4085 98.648C30.0405 98.648 29.7165 98.756 29.4365 98.972C29.1645 99.18 28.9485 99.484 28.7885 99.884V104H27.9005ZM32.049 104V95.6L32.937 95.396V100.7L36.081 97.988H37.161L33.861 100.844L37.317 104H36.105L32.937 101.12V104H32.049ZM40.2596 104.108C39.6836 104.108 39.1596 103.972 38.6876 103.7C38.2236 103.42 37.8516 103.044 37.5716 102.572C37.2996 102.1 37.1636 101.572 37.1636 100.988C37.1636 100.412 37.2956 99.892 37.5596 99.428C37.8236 98.956 38.1796 98.584 38.6276 98.312C39.0756 98.032 39.5756 97.892 40.1276 97.892C40.6636 97.892 41.1436 98.032 41.5676 98.312C41.9996 98.584 42.3396 98.956 42.5876 99.428C42.8436 99.892 42.9716 100.412 42.9716 100.988V101.264H38.0396C38.0876 101.656 38.2116 102.008 38.4116 102.32C38.6196 102.632 38.8876 102.88 39.2156 103.064C39.5436 103.24 39.9036 103.328 40.2956 103.328C40.6076 103.328 40.9116 103.28 41.2076 103.184C41.5036 103.088 41.7516 102.952 41.9516 102.776L42.5036 103.364C42.1676 103.612 41.8156 103.8 41.4476 103.928C41.0876 104.048 40.6916 104.108 40.2596 104.108ZM38.0636 100.556H42.0836C42.0356 100.196 41.9156 99.876 41.7236 99.596C41.5396 99.308 41.3076 99.084 41.0276 98.924C40.7476 98.756 40.4396 98.672 40.1036 98.672C39.7596 98.672 39.4436 98.752 39.1556 98.912C38.8676 99.072 38.6276 99.296 38.4356 99.584C38.2436 99.864 38.1196 100.188 38.0636 100.556ZM44.213 104V97.988H45.101V98.84C45.285 98.528 45.517 98.288 45.797 98.12C46.085 97.944 46.413 97.856 46.781 97.856C46.989 97.856 47.177 97.884 47.345 97.94V98.756C47.241 98.716 47.137 98.688 47.033 98.672C46.929 98.656 46.825 98.648 46.721 98.648C46.353 98.648 46.029 98.756 45.749 98.972C45.477 99.18 45.261 99.484 45.101 99.884V104H44.213ZM50.2229 104.12C49.7269 104.12 49.2589 104.04 48.8189 103.88C48.3869 103.712 48.0109 103.48 47.6909 103.184L48.2309 102.608C48.5109 102.864 48.8189 103.064 49.1549 103.208C49.4909 103.344 49.8349 103.412 50.1869 103.412C50.6669 103.412 51.0589 103.312 51.3629 103.112C51.6669 102.912 51.8189 102.652 51.8189 102.332C51.8189 102.068 51.7269 101.864 51.5429 101.72C51.3669 101.568 51.0869 101.464 50.7029 101.408L49.6589 101.264C49.0589 101.176 48.6109 100.996 48.3149 100.724C48.0269 100.452 47.8829 100.084 47.8829 99.62C47.8829 99.284 47.9789 98.984 48.1709 98.72C48.3629 98.456 48.6269 98.248 48.9629 98.096C49.3069 97.944 49.6989 97.868 50.1389 97.868C50.5789 97.868 50.9909 97.932 51.3749 98.06C51.7589 98.188 52.1349 98.388 52.5029 98.66L52.0349 99.26C51.6989 99.028 51.3709 98.86 51.0509 98.756C50.7389 98.644 50.4189 98.588 50.0909 98.588C49.6749 98.588 49.3389 98.68 49.0829 98.864C48.8269 99.048 48.6989 99.288 48.6989 99.584C48.6989 99.856 48.7869 100.064 48.9629 100.208C49.1389 100.344 49.4229 100.44 49.8149 100.496L50.8589 100.64C51.4589 100.72 51.9069 100.896 52.2029 101.168C52.5069 101.44 52.6589 101.812 52.6589 102.284C52.6589 102.628 52.5509 102.94 52.3349 103.22C52.1189 103.5 51.8269 103.72 51.4589 103.88C51.0989 104.04 50.6869 104.12 50.2229 104.12Z" fill="black"/>
<g clip-path="url(#clip0_288_102)">
<path d="M129.666 125H96.333V145H129.666V125Z" fill="black"/>
<path d="M129.666 131.667H96.333V145H129.666V131.667Z" fill="#DD0000"/>
<path d="M129.666 138.333H96.333V145H129.666V138.333Z" fill="#FFCE00"/>
</g>
<rect x="95.833" y="124.5" width="34.3333" height="21" stroke="#BDBEBD"/>
<g clip-path="url(#clip1_288_102)">
<path d="M211.462 125H234.539V145H211.462V125Z" fill="#EF3340"/>
<path d="M211.462 125H226.847V145H211.462V125Z" fill="#FDDA25"/>
<path d="M211.462 125H219.154V145H211.462V125Z" fill="black"/>
</g>
<rect x="210.962" y="124.5" width="24.0769" height="21" stroke="#BDBEBD"/>
<g clip-path="url(#clip2_288_102)">
<path d="M318 125H348V145H318" fill="#CE0000"/>
<path d="M318 129H348V133H318V137H348V141H318" fill="white"/>
<path d="M318 125L335.32 135L318 145" fill="#87CEFA"/>
<path d="M323.774 131.667L321.814 137.697L326.944 133.97H320.604L325.734 137.697" fill="white"/>
</g>
<rect x="317.5" y="124.5" width="31" height="21" stroke="#BDBEBD"/>
<g clip-path="url(#clip3_288_102)">
<path d="M424 125H462V145H424" fill="#BF0A30"/>
<path d="M424 127.308H462H424ZM462 130.385H424H462ZM424 133.461H462H424ZM462 136.538H424H462ZM424 139.615H462H424ZM462 142.692H424H462Z" fill="black"/>
<path d="M424 127.308H462M462 130.385H424M424 133.461H462M462 136.538H424M424 139.615H462M462 142.692H424" stroke="white" stroke-width="1.53846"/>
<path d="M424 125H439.2V135.769H424" fill="#00205B"/>
<path d="M425.267 125.461L425.629 126.575L424.682 125.887H425.852L424.905 126.575L425.267 125.461Z" fill="white"/>
<path d="M425.267 127.615L425.629 128.728L424.682 128.04H425.852L424.905 128.728L425.267 127.615Z" fill="white"/>
<path d="M425.267 129.769L425.629 130.882L424.682 130.194H425.852L424.905 130.882L425.267 129.769Z" fill="white"/>
<path d="M425.267 131.923L425.629 133.036L424.682 132.348H425.852L424.905 133.036L425.267 131.923Z" fill="white"/>
<path d="M425.267 134.077L425.629 135.19L424.682 134.502H425.852L424.905 135.19L425.267 134.077Z" fill="white"/>
<path d="M426.534 126.539L426.895 127.652L425.948 126.964H427.119L426.172 127.652L426.534 126.539Z" fill="white"/>
<path d="M426.534 128.692L426.895 129.806L425.948 129.118H427.119L426.172 129.806L426.534 128.692Z" fill="white"/>
<path d="M426.534 130.846L426.895 131.959L425.948 131.271H427.119L426.172 131.959L426.534 130.846Z" fill="white"/>
<path d="M426.534 133L426.895 134.113L425.948 133.425H427.119L426.172 134.113L426.534 133Z" fill="white"/>
<path d="M427.8 125.461L428.162 126.575L427.215 125.887H428.385L427.438 126.575L427.8 125.461Z" fill="white"/>
<path d="M427.8 127.615L428.162 128.728L427.215 128.04H428.385L427.438 128.728L427.8 127.615Z" fill="white"/>
<path d="M427.8 129.769L428.162 130.882L427.215 130.194H428.385L427.438 130.882L427.8 129.769Z" fill="white"/>
<path d="M427.8 131.923L428.162 133.036L427.215 132.348H428.385L427.438 133.036L427.8 131.923Z" fill="white"/>
<path d="M427.8 134.077L428.162 135.19L427.215 134.502H428.385L427.438 135.19L427.8 134.077Z" fill="white"/>
<path d="M429.067 126.539L429.428 127.652L428.481 126.964H429.652L428.705 127.652L429.067 126.539Z" fill="white"/>
<path d="M429.067 128.692L429.428 129.806L428.481 129.118H429.652L428.705 129.806L429.067 128.692Z" fill="white"/>
<path d="M429.067 130.846L429.428 131.959L428.481 131.271H429.652L428.705 131.959L429.067 130.846Z" fill="white"/>
<path d="M429.067 133L429.428 134.113L428.481 133.425H429.652L428.705 134.113L429.067 133Z" fill="white"/>
<path d="M430.333 125.461L430.695 126.575L429.748 125.887H430.919L429.972 126.575L430.333 125.461Z" fill="white"/>
<path d="M430.333 127.615L430.695 128.728L429.748 128.04H430.919L429.972 128.728L430.333 127.615Z" fill="white"/>
<path d="M430.333 129.769L430.695 130.882L429.748 130.194H430.919L429.972 130.882L430.333 129.769Z" fill="white"/>
<path d="M430.333 131.923L430.695 133.036L429.748 132.348H430.919L429.972 133.036L430.333 131.923Z" fill="white"/>
<path d="M430.333 134.077L430.695 135.19L429.748 134.502H430.919L429.972 135.19L430.333 134.077Z" fill="white"/>
<path d="M431.6 126.539L431.962 127.652L431.015 126.964H432.185L431.238 127.652L431.6 126.539Z" fill="white"/>
<path d="M431.6 128.692L431.962 129.806L431.015 129.118H432.185L431.238 129.806L431.6 128.692Z" fill="white"/>
<path d="M431.6 130.846L431.962 131.959L431.015 131.271H432.185L431.238 131.959L431.6 130.846Z" fill="white"/>
<path d="M431.6 133L431.962 134.113L431.015 133.425H432.185L431.238 134.113L431.6 133Z" fill="white"/>
<path d="M432.867 125.461L433.228 126.575L432.281 125.887H433.452L432.505 126.575L432.867 125.461Z" fill="white"/>
<path d="M432.867 127.615L433.228 128.728L432.281 128.04H433.452L432.505 128.728L432.867 127.615Z" fill="white"/>
<path d="M432.867 129.769L433.228 130.882L432.281 130.194H433.452L432.505 130.882L432.867 129.769Z" fill="white"/>
<path d="M432.867 131.923L433.228 133.036L432.281 132.348H433.452L432.505 133.036L432.867 131.923Z" fill="white"/>
<path d="M432.867 134.077L433.228 135.19L432.281 134.502H433.452L432.505 135.19L432.867 134.077Z" fill="white"/>
<path d="M434.133 126.539L434.495 127.652L433.548 126.964H434.718L433.771 127.652L434.133 126.539Z" fill="white"/>
<path d="M434.133 128.692L434.495 129.806L433.548 129.118H434.718L433.771 129.806L434.133 128.692Z" fill="white"/>
<path d="M434.133 130.846L434.495 131.959L433.548 131.271H434.718L433.771 131.959L434.133 130.846Z" fill="white"/>
<path d="M434.133 133L434.495 134.113L433.548 133.425H434.718L433.771 134.113L434.133 133Z" fill="white"/>
<path d="M435.4 125.461L435.761 126.575L434.814 125.887H435.985L435.038 126.575L435.4 125.461Z" fill="white"/>
<path d="M435.4 127.615L435.761 128.728L434.814 128.04H435.985L435.038 128.728L435.4 127.615Z" fill="white"/>
<path d="M435.4 129.769L435.761 130.882L434.814 130.194H435.985L435.038 130.882L435.4 129.769Z" fill="white"/>
<path d="M435.4 131.923L435.761 133.036L434.814 132.348H435.985L435.038 133.036L435.4 131.923Z" fill="white"/>
<path d="M435.4 134.077L435.761 135.19L434.814 134.502H435.985L435.038 135.19L435.4 134.077Z" fill="white"/>
<path d="M436.666 126.539L437.028 127.652L436.081 126.964H437.252L436.305 127.652L436.666 126.539Z" fill="white"/>
<path d="M436.666 128.692L437.028 129.806L436.081 129.118H437.252L436.305 129.806L436.666 128.692Z" fill="white"/>
<path d="M436.666 130.846L437.028 131.959L436.081 131.271H437.252L436.305 131.959L436.666 130.846Z" fill="white"/>
<path d="M436.666 133L437.028 134.113L436.081 133.425H437.252L436.305 134.113L436.666 133Z" fill="white"/>
<path d="M437.933 125.461L438.295 126.575L437.348 125.887H438.518L437.571 126.575L437.933 125.461Z" fill="white"/>
<path d="M437.933 127.615L438.295 128.728L437.348 128.04H438.518L437.571 128.728L437.933 127.615Z" fill="white"/>
<path d="M437.933 129.769L438.295 130.882L437.348 130.194H438.518L437.571 130.882L437.933 129.769Z" fill="white"/>
<path d="M437.933 131.923L438.295 133.036L437.348 132.348H438.518L437.571 133.036L437.933 131.923Z" fill="white"/>
<path d="M437.933 134.077L438.295 135.19L437.348 134.502H438.518L437.571 135.19L437.933 134.077Z" fill="white"/>
</g>
<rect x="423.5" y="124.5" width="39" height="21" stroke="#BDBEBD"/>
<rect x="63" width="430" height="40" fill="black"/>
<rect x="63" width="100" height="40" fill="black"/>
<rect x="173" width="100" height="40" fill="black"/>
<rect x="283" width="100" height="40" fill="black"/>
<rect x="393" width="100" height="40" fill="black"/>
<rect x="63" y="50" width="100" height="20" fill="black"/>
<rect x="173" y="50" width="100" height="20" fill="black"/>
<rect x="283" y="50" width="100" height="20" fill="black"/>
<rect x="393" y="50" width="100" height="20" fill="black"/>
<rect x="63" y="80" width="100" height="40" fill="black"/>
<rect x="173" y="80" width="100" height="40" fill="black"/>
<rect x="283" y="80" width="100" height="40" fill="black"/>
<rect x="393" y="80" width="100" height="40" fill="black"/>
<rect x="163" y="20" width="10" height="21" fill="white"/>
<rect x="273" y="20" width="10" height="21" fill="white"/>
<rect x="383" y="20" width="10" height="21" fill="white"/>
<defs>
<clipPath id="clip0_288_102">
<rect x="96.333" y="125" width="33.3333" height="20" fill="white"/>
</clipPath>
<clipPath id="clip1_288_102">
<rect x="211.462" y="125" width="23.0769" height="20" fill="white"/>
</clipPath>
<clipPath id="clip2_288_102">
<rect x="318" y="125" width="30" height="20" fill="white"/>
</clipPath>
<clipPath id="clip3_288_102">
<rect x="424" y="125" width="38" height="20" fill="white"/>
</clipPath>
</defs>
</svg>
