<svg width="953" height="180" viewBox="0 0 953 180" fill="none" xmlns="http://www.w3.org/2000/svg">
<path d="M39.884 24.132C39.276 24.132 38.708 24.024 38.18 23.808C37.652 23.584 37.188 23.276 36.788 22.884C36.388 22.484 36.076 22.024 35.852 21.504C35.636 20.976 35.528 20.408 35.528 19.8C35.528 19.192 35.636 18.628 35.852 18.108C36.076 17.58 36.388 17.12 36.788 16.728C37.188 16.328 37.652 16.02 38.18 15.804C38.708 15.58 39.276 15.468 39.884 15.468C40.324 15.468 40.744 15.524 41.144 15.636C41.552 15.74 41.928 15.896 42.272 16.104C42.624 16.304 42.936 16.552 43.208 16.848L42.596 17.496C42.268 17.12 41.864 16.832 41.384 16.632C40.904 16.424 40.404 16.32 39.884 16.32C39.396 16.32 38.944 16.408 38.528 16.584C38.112 16.76 37.748 17.008 37.436 17.328C37.132 17.64 36.892 18.008 36.716 18.432C36.548 18.848 36.464 19.304 36.464 19.8C36.464 20.288 36.548 20.744 36.716 21.168C36.892 21.592 37.136 21.964 37.448 22.284C37.76 22.596 38.124 22.84 38.54 23.016C38.964 23.192 39.42 23.28 39.908 23.28C40.428 23.28 40.924 23.18 41.396 22.98C41.868 22.772 42.264 22.488 42.584 22.128L43.184 22.752C42.904 23.04 42.588 23.288 42.236 23.496C41.892 23.704 41.52 23.864 41.12 23.976C40.72 24.08 40.308 24.132 39.884 24.132ZM46.3122 24.108C45.8722 24.108 45.4842 24.032 45.1482 23.88C44.8202 23.728 44.5602 23.516 44.3682 23.244C44.1842 22.972 44.0922 22.656 44.0922 22.296C44.0922 21.728 44.3082 21.28 44.7402 20.952C45.1722 20.624 45.7562 20.46 46.4922 20.46C47.1402 20.46 47.7282 20.596 48.2562 20.868V20.076C48.2562 19.596 48.1202 19.236 47.8482 18.996C47.5762 18.748 47.1802 18.624 46.6602 18.624C46.3642 18.624 46.0642 18.668 45.7602 18.756C45.4642 18.836 45.1362 18.968 44.7762 19.152L44.4402 18.468C44.8722 18.26 45.2722 18.108 45.6402 18.012C46.0082 17.916 46.3762 17.868 46.7442 17.868C47.5042 17.868 48.0882 18.048 48.4962 18.408C48.9122 18.768 49.1202 19.284 49.1202 19.956V24H48.2562V23.412C47.9842 23.644 47.6842 23.82 47.3562 23.94C47.0362 24.052 46.6882 24.108 46.3122 24.108ZM44.9442 22.272C44.9442 22.608 45.0842 22.884 45.3642 23.1C45.6522 23.308 46.0202 23.412 46.4682 23.412C46.8282 23.412 47.1562 23.356 47.4522 23.244C47.7482 23.132 48.0162 22.956 48.2562 22.716V21.588C48.0082 21.42 47.7442 21.3 47.4642 21.228C47.1842 21.148 46.8682 21.108 46.5162 21.108C46.0362 21.108 45.6522 21.216 45.3642 21.432C45.0842 21.64 44.9442 21.92 44.9442 22.272ZM50.6037 26.448V17.988H51.4797V18.636C51.9997 18.14 52.6477 17.892 53.4237 17.892C53.9917 17.892 54.5037 18.032 54.9597 18.312C55.4157 18.584 55.7757 18.952 56.0397 19.416C56.3117 19.88 56.4477 20.404 56.4477 20.988C56.4477 21.572 56.3117 22.1 56.0397 22.572C55.7757 23.036 55.4157 23.408 54.9597 23.688C54.5037 23.96 53.9877 24.096 53.4117 24.096C53.0597 24.096 52.7197 24.036 52.3917 23.916C52.0637 23.796 51.7637 23.624 51.4917 23.4V26.448H50.6037ZM53.3397 23.316C53.7637 23.316 54.1437 23.216 54.4797 23.016C54.8157 22.808 55.0797 22.532 55.2717 22.188C55.4717 21.836 55.5717 21.44 55.5717 21C55.5717 20.56 55.4717 20.164 55.2717 19.812C55.0797 19.46 54.8157 19.184 54.4797 18.984C54.1437 18.776 53.7637 18.672 53.3397 18.672C52.9637 18.672 52.6117 18.748 52.2837 18.9C51.9637 19.044 51.6997 19.248 51.4917 19.512V22.488C51.6997 22.744 51.9677 22.948 52.2957 23.1C52.6237 23.244 52.9717 23.316 53.3397 23.316ZM57.6818 24V17.988H58.5698V24H57.6818ZM58.1258 16.836C57.9658 16.836 57.8258 16.776 57.7058 16.656C57.5858 16.536 57.5258 16.396 57.5258 16.236C57.5258 16.068 57.5858 15.928 57.7058 15.816C57.8258 15.696 57.9658 15.636 58.1258 15.636C58.2938 15.636 58.4338 15.696 58.5458 15.816C58.6658 15.928 58.7258 16.068 58.7258 16.236C58.7258 16.396 58.6658 16.536 58.5458 16.656C58.4338 16.776 58.2938 16.836 58.1258 16.836ZM62.4481 24.12C61.9281 24.12 61.5281 23.996 61.2481 23.748C60.9681 23.5 60.8281 23.14 60.8281 22.668V18.744H59.5321V17.988H60.8281V16.464L61.7041 16.236V17.988H63.5161V18.744H61.7041V22.44C61.7041 22.76 61.7761 22.992 61.9201 23.136C62.0641 23.272 62.3001 23.34 62.6281 23.34C62.7961 23.34 62.9441 23.328 63.0721 23.304C63.2081 23.28 63.3521 23.24 63.5041 23.184V23.964C63.3521 24.02 63.1801 24.06 62.9881 24.084C62.8041 24.108 62.6241 24.12 62.4481 24.12ZM66.3629 24.108C65.9229 24.108 65.5349 24.032 65.1989 23.88C64.8709 23.728 64.6109 23.516 64.4189 23.244C64.2349 22.972 64.1429 22.656 64.1429 22.296C64.1429 21.728 64.3589 21.28 64.7909 20.952C65.2229 20.624 65.8069 20.46 66.5429 20.46C67.1909 20.46 67.7789 20.596 68.3069 20.868V20.076C68.3069 19.596 68.1709 19.236 67.8989 18.996C67.6269 18.748 67.2309 18.624 66.7109 18.624C66.4149 18.624 66.1149 18.668 65.8109 18.756C65.5149 18.836 65.1869 18.968 64.8269 19.152L64.4909 18.468C64.9229 18.26 65.3229 18.108 65.6909 18.012C66.0589 17.916 66.4269 17.868 66.7949 17.868C67.5549 17.868 68.1389 18.048 68.5469 18.408C68.9629 18.768 69.1709 19.284 69.1709 19.956V24H68.3069V23.412C68.0349 23.644 67.7349 23.82 67.4069 23.94C67.0869 24.052 66.7389 24.108 66.3629 24.108ZM64.9949 22.272C64.9949 22.608 65.1349 22.884 65.4149 23.1C65.7029 23.308 66.0709 23.412 66.5189 23.412C66.8789 23.412 67.2069 23.356 67.5029 23.244C67.7989 23.132 68.0669 22.956 68.3069 22.716V21.588C68.0589 21.42 67.7949 21.3 67.5149 21.228C67.2349 21.148 66.9189 21.108 66.5669 21.108C66.0869 21.108 65.7029 21.216 65.4149 21.432C65.1349 21.64 64.9949 21.92 64.9949 22.272ZM70.6544 24V15.6L71.5424 15.396V24H70.6544Z" fill="black"/>
<path d="M10.924 64V55.6H16.936V56.416H11.848V59.416H15.184V60.22H11.848V64H10.924ZM19.5994 64.108C19.0234 64.108 18.4994 63.972 18.0274 63.7C17.5634 63.42 17.1914 63.044 16.9114 62.572C16.6394 62.1 16.5034 61.572 16.5034 60.988C16.5034 60.412 16.6354 59.892 16.8994 59.428C17.1634 58.956 17.5194 58.584 17.9674 58.312C18.4154 58.032 18.9154 57.892 19.4674 57.892C20.0034 57.892 20.4834 58.032 20.9074 58.312C21.3394 58.584 21.6794 58.956 21.9274 59.428C22.1834 59.892 22.3114 60.412 22.3114 60.988V61.264H17.3794C17.4274 61.656 17.5514 62.008 17.7514 62.32C17.9594 62.632 18.2274 62.88 18.5554 63.064C18.8834 63.24 19.2434 63.328 19.6354 63.328C19.9474 63.328 20.2514 63.28 20.5474 63.184C20.8434 63.088 21.0914 62.952 21.2914 62.776L21.8434 63.364C21.5074 63.612 21.1554 63.8 20.7874 63.928C20.4274 64.048 20.0314 64.108 19.5994 64.108ZM17.4034 60.556H21.4234C21.3754 60.196 21.2554 59.876 21.0634 59.596C20.8794 59.308 20.6474 59.084 20.3674 58.924C20.0874 58.756 19.7794 58.672 19.4434 58.672C19.0994 58.672 18.7834 58.752 18.4954 58.912C18.2074 59.072 17.9674 59.296 17.7754 59.584C17.5834 59.864 17.4594 60.188 17.4034 60.556ZM26.3009 64.096C25.7409 64.096 25.2289 63.96 24.7649 63.688C24.3089 63.408 23.9449 63.036 23.6729 62.572C23.4089 62.1 23.2769 61.572 23.2769 60.988C23.2769 60.404 23.4089 59.88 23.6729 59.416C23.9449 58.952 24.3089 58.584 24.7649 58.312C25.2289 58.032 25.7449 57.892 26.3129 57.892C26.6649 57.892 27.0049 57.952 27.3329 58.072C27.6609 58.184 27.9609 58.352 28.2329 58.576V55.6L29.1209 55.396V64H28.2449V63.364C27.7169 63.852 27.0689 64.096 26.3009 64.096ZM26.3849 63.316C26.7609 63.316 27.1089 63.244 27.4289 63.1C27.7569 62.948 28.0249 62.74 28.2329 62.476V59.5C28.0249 59.244 27.7569 59.044 27.4289 58.9C27.1089 58.748 26.7609 58.672 26.3849 58.672C25.9689 58.672 25.5889 58.772 25.2449 58.972C24.9089 59.172 24.6409 59.448 24.4409 59.8C24.2489 60.144 24.1529 60.536 24.1529 60.976C24.1529 61.416 24.2489 61.812 24.4409 62.164C24.6409 62.516 24.9089 62.796 25.2449 63.004C25.5889 63.212 25.9689 63.316 26.3849 63.316ZM33.451 64.108C32.875 64.108 32.351 63.972 31.879 63.7C31.415 63.42 31.043 63.044 30.763 62.572C30.491 62.1 30.355 61.572 30.355 60.988C30.355 60.412 30.487 59.892 30.751 59.428C31.015 58.956 31.371 58.584 31.819 58.312C32.267 58.032 32.767 57.892 33.319 57.892C33.855 57.892 34.335 58.032 34.759 58.312C35.191 58.584 35.531 58.956 35.779 59.428C36.035 59.892 36.163 60.412 36.163 60.988V61.264H31.231C31.279 61.656 31.403 62.008 31.603 62.32C31.811 62.632 32.079 62.88 32.407 63.064C32.735 63.24 33.095 63.328 33.487 63.328C33.799 63.328 34.103 63.28 34.399 63.184C34.695 63.088 34.943 62.952 35.143 62.776L35.695 63.364C35.359 63.612 35.007 63.8 34.639 63.928C34.279 64.048 33.883 64.108 33.451 64.108ZM31.255 60.556H35.275C35.227 60.196 35.107 59.876 34.915 59.596C34.731 59.308 34.499 59.084 34.219 58.924C33.939 58.756 33.631 58.672 33.295 58.672C32.951 58.672 32.635 58.752 32.347 58.912C32.059 59.072 31.819 59.296 31.627 59.584C31.435 59.864 31.311 60.188 31.255 60.556ZM37.4044 64V57.988H38.2924V58.84C38.4764 58.528 38.7084 58.288 38.9884 58.12C39.2764 57.944 39.6044 57.856 39.9724 57.856C40.1804 57.856 40.3684 57.884 40.5364 57.94V58.756C40.4324 58.716 40.3284 58.688 40.2244 58.672C40.1204 58.656 40.0164 58.648 39.9124 58.648C39.5444 58.648 39.2204 58.756 38.9404 58.972C38.6684 59.18 38.4524 59.484 38.2924 59.884V64H37.4044ZM43.1442 64.108C42.7042 64.108 42.3162 64.032 41.9802 63.88C41.6522 63.728 41.3922 63.516 41.2002 63.244C41.0162 62.972 40.9242 62.656 40.9242 62.296C40.9242 61.728 41.1402 61.28 41.5722 60.952C42.0042 60.624 42.5882 60.46 43.3242 60.46C43.9722 60.46 44.5602 60.596 45.0882 60.868V60.076C45.0882 59.596 44.9522 59.236 44.6802 58.996C44.4082 58.748 44.0122 58.624 43.4922 58.624C43.1962 58.624 42.8962 58.668 42.5922 58.756C42.2962 58.836 41.9682 58.968 41.6082 59.152L41.2722 58.468C41.7042 58.26 42.1042 58.108 42.4722 58.012C42.8402 57.916 43.2082 57.868 43.5762 57.868C44.3362 57.868 44.9202 58.048 45.3282 58.408C45.7442 58.768 45.9522 59.284 45.9522 59.956V64H45.0882V63.412C44.8162 63.644 44.5162 63.82 44.1882 63.94C43.8682 64.052 43.5202 64.108 43.1442 64.108ZM41.7762 62.272C41.7762 62.608 41.9162 62.884 42.1962 63.1C42.4842 63.308 42.8522 63.412 43.3002 63.412C43.6602 63.412 43.9882 63.356 44.2842 63.244C44.5802 63.132 44.8482 62.956 45.0882 62.716V61.588C44.8402 61.42 44.5762 61.3 44.2962 61.228C44.0162 61.148 43.7002 61.108 43.3482 61.108C42.8682 61.108 42.4842 61.216 42.1962 61.432C41.9162 61.64 41.7762 61.92 41.7762 62.272ZM49.6239 64.12C49.1039 64.12 48.7039 63.996 48.4239 63.748C48.1439 63.5 48.0039 63.14 48.0039 62.668V58.744H46.7079V57.988H48.0039V56.464L48.8799 56.236V57.988H50.6919V58.744H48.8799V62.44C48.8799 62.76 48.9519 62.992 49.0959 63.136C49.2399 63.272 49.4759 63.34 49.8039 63.34C49.9719 63.34 50.1199 63.328 50.2479 63.304C50.3839 63.28 50.5279 63.24 50.6799 63.184V63.964C50.5279 64.02 50.3559 64.06 50.1639 64.084C49.9799 64.108 49.7999 64.12 49.6239 64.12ZM51.6427 64V57.988H52.5307V64H51.6427ZM52.0867 56.836C51.9267 56.836 51.7867 56.776 51.6667 56.656C51.5467 56.536 51.4867 56.396 51.4867 56.236C51.4867 56.068 51.5467 55.928 51.6667 55.816C51.7867 55.696 51.9267 55.636 52.0867 55.636C52.2547 55.636 52.3947 55.696 52.5067 55.816C52.6267 55.928 52.6867 56.068 52.6867 56.236C52.6867 56.396 52.6267 56.536 52.5067 56.656C52.3947 56.776 52.2547 56.836 52.0867 56.836ZM56.8411 64.12C56.2731 64.12 55.7531 63.984 55.2811 63.712C54.8171 63.432 54.4491 63.056 54.1771 62.584C53.9051 62.112 53.7691 61.584 53.7691 61C53.7691 60.416 53.9051 59.888 54.1771 59.416C54.4491 58.944 54.8171 58.572 55.2811 58.3C55.7531 58.02 56.2731 57.88 56.8411 57.88C57.4171 57.88 57.9371 58.02 58.4011 58.3C58.8651 58.572 59.2331 58.944 59.5051 59.416C59.7771 59.888 59.9131 60.416 59.9131 61C59.9131 61.584 59.7771 62.112 59.5051 62.584C59.2331 63.056 58.8651 63.432 58.4011 63.712C57.9371 63.984 57.4171 64.12 56.8411 64.12ZM56.8411 63.328C57.2491 63.328 57.6171 63.224 57.9451 63.016C58.2811 62.808 58.5451 62.528 58.7371 62.176C58.9371 61.824 59.0371 61.432 59.0371 61C59.0371 60.56 58.9371 60.168 58.7371 59.824C58.5451 59.472 58.2811 59.192 57.9451 58.984C57.6171 58.776 57.2491 58.672 56.8411 58.672C56.4331 58.672 56.0611 58.776 55.7251 58.984C55.3971 59.192 55.1331 59.472 54.9331 59.824C54.7411 60.168 54.6451 60.56 54.6451 61C54.6451 61.432 54.7411 61.824 54.9331 62.176C55.1331 62.528 55.3971 62.808 55.7251 63.016C56.0611 63.224 56.4331 63.328 56.8411 63.328ZM61.1466 64V57.988H62.0346V58.696C62.5066 58.144 63.1386 57.868 63.9306 57.868C64.3866 57.868 64.7866 57.968 65.1306 58.168C65.4826 58.36 65.7546 58.632 65.9466 58.984C66.1466 59.328 66.2466 59.732 66.2466 60.196V64H65.3706V60.376C65.3706 59.84 65.2186 59.42 64.9146 59.116C64.6186 58.804 64.2106 58.648 63.6906 58.648C63.3306 58.648 63.0106 58.728 62.7306 58.888C62.4506 59.048 62.2186 59.276 62.0346 59.572V64H61.1466ZM69.6526 64.12C69.1566 64.12 68.6886 64.04 68.2486 63.88C67.8166 63.712 67.4406 63.48 67.1206 63.184L67.6606 62.608C67.9406 62.864 68.2486 63.064 68.5846 63.208C68.9206 63.344 69.2646 63.412 69.6166 63.412C70.0966 63.412 70.4886 63.312 70.7926 63.112C71.0966 62.912 71.2486 62.652 71.2486 62.332C71.2486 62.068 71.1566 61.864 70.9726 61.72C70.7966 61.568 70.5166 61.464 70.1326 61.408L69.0886 61.264C68.4886 61.176 68.0406 60.996 67.7446 60.724C67.4566 60.452 67.3126 60.084 67.3126 59.62C67.3126 59.284 67.4086 58.984 67.6006 58.72C67.7926 58.456 68.0566 58.248 68.3926 58.096C68.7366 57.944 69.1286 57.868 69.5686 57.868C70.0086 57.868 70.4206 57.932 70.8046 58.06C71.1886 58.188 71.5646 58.388 71.9326 58.66L71.4646 59.26C71.1286 59.028 70.8006 58.86 70.4806 58.756C70.1686 58.644 69.8486 58.588 69.5206 58.588C69.1046 58.588 68.7686 58.68 68.5126 58.864C68.2566 59.048 68.1286 59.288 68.1286 59.584C68.1286 59.856 68.2166 60.064 68.3926 60.208C68.5686 60.344 68.8526 60.44 69.2446 60.496L70.2886 60.64C70.8886 60.72 71.3366 60.896 71.6326 61.168C71.9366 61.44 72.0886 61.812 72.0886 62.284C72.0886 62.628 71.9806 62.94 71.7646 63.22C71.5486 63.5 71.2566 63.72 70.8886 63.88C70.5286 64.04 70.1166 64.12 69.6526 64.12Z" fill="black"/>
<path d="M32.924 94V85.6H33.848L38.9 92.416V85.6H39.776V94H38.96L33.8 87.004V94H32.924ZM43.2301 94.108C42.7901 94.108 42.4021 94.032 42.0661 93.88C41.7381 93.728 41.4781 93.516 41.2861 93.244C41.1021 92.972 41.0101 92.656 41.0101 92.296C41.0101 91.728 41.2261 91.28 41.6581 90.952C42.0901 90.624 42.6741 90.46 43.4101 90.46C44.0581 90.46 44.6461 90.596 45.1741 90.868V90.076C45.1741 89.596 45.0381 89.236 44.7661 88.996C44.4941 88.748 44.0981 88.624 43.5781 88.624C43.2821 88.624 42.9821 88.668 42.6781 88.756C42.3821 88.836 42.0541 88.968 41.6941 89.152L41.3581 88.468C41.7901 88.26 42.1901 88.108 42.5581 88.012C42.9261 87.916 43.2941 87.868 43.6621 87.868C44.4221 87.868 45.0061 88.048 45.4141 88.408C45.8301 88.768 46.0381 89.284 46.0381 89.956V94H45.1741V93.412C44.9021 93.644 44.6021 93.82 44.2741 93.94C43.9541 94.052 43.6061 94.108 43.2301 94.108ZM41.8621 92.272C41.8621 92.608 42.0021 92.884 42.2821 93.1C42.5701 93.308 42.9381 93.412 43.3861 93.412C43.7461 93.412 44.0741 93.356 44.3701 93.244C44.6661 93.132 44.9341 92.956 45.1741 92.716V91.588C44.9261 91.42 44.6621 91.3 44.3821 91.228C44.1021 91.148 43.7861 91.108 43.4341 91.108C42.9541 91.108 42.5701 91.216 42.2821 91.432C42.0021 91.64 41.8621 91.92 41.8621 92.272ZM49.7098 94.12C49.1898 94.12 48.7898 93.996 48.5098 93.748C48.2298 93.5 48.0898 93.14 48.0898 92.668V88.744H46.7938V87.988H48.0898V86.464L48.9658 86.236V87.988H50.7778V88.744H48.9658V92.44C48.9658 92.76 49.0378 92.992 49.1818 93.136C49.3258 93.272 49.5618 93.34 49.8898 93.34C50.0578 93.34 50.2058 93.328 50.3338 93.304C50.4698 93.28 50.6138 93.24 50.7658 93.184V93.964C50.6138 94.02 50.4418 94.06 50.2498 94.084C50.0658 94.108 49.8858 94.12 49.7098 94.12ZM51.7287 94V87.988H52.6167V94H51.7287ZM52.1727 86.836C52.0127 86.836 51.8727 86.776 51.7527 86.656C51.6327 86.536 51.5727 86.396 51.5727 86.236C51.5727 86.068 51.6327 85.928 51.7527 85.816C51.8727 85.696 52.0127 85.636 52.1727 85.636C52.3407 85.636 52.4807 85.696 52.5927 85.816C52.7127 85.928 52.7727 86.068 52.7727 86.236C52.7727 86.396 52.7127 86.536 52.5927 86.656C52.4807 86.776 52.3407 86.836 52.1727 86.836ZM56.927 94.12C56.359 94.12 55.839 93.984 55.367 93.712C54.903 93.432 54.535 93.056 54.263 92.584C53.991 92.112 53.855 91.584 53.855 91C53.855 90.416 53.991 89.888 54.263 89.416C54.535 88.944 54.903 88.572 55.367 88.3C55.839 88.02 56.359 87.88 56.927 87.88C57.503 87.88 58.023 88.02 58.487 88.3C58.951 88.572 59.319 88.944 59.591 89.416C59.863 89.888 59.999 90.416 59.999 91C59.999 91.584 59.863 92.112 59.591 92.584C59.319 93.056 58.951 93.432 58.487 93.712C58.023 93.984 57.503 94.12 56.927 94.12ZM56.927 93.328C57.335 93.328 57.703 93.224 58.031 93.016C58.367 92.808 58.631 92.528 58.823 92.176C59.023 91.824 59.123 91.432 59.123 91C59.123 90.56 59.023 90.168 58.823 89.824C58.631 89.472 58.367 89.192 58.031 88.984C57.703 88.776 57.335 88.672 56.927 88.672C56.519 88.672 56.147 88.776 55.811 88.984C55.483 89.192 55.219 89.472 55.019 89.824C54.827 90.168 54.731 90.56 54.731 91C54.731 91.432 54.827 91.824 55.019 92.176C55.219 92.528 55.483 92.808 55.811 93.016C56.147 93.224 56.519 93.328 56.927 93.328ZM61.2326 94V87.988H62.1206V88.696C62.5926 88.144 63.2246 87.868 64.0166 87.868C64.4726 87.868 64.8726 87.968 65.2166 88.168C65.5686 88.36 65.8406 88.632 66.0326 88.984C66.2326 89.328 66.3326 89.732 66.3326 90.196V94H65.4566V90.376C65.4566 89.84 65.3046 89.42 65.0006 89.116C64.7046 88.804 64.2966 88.648 63.7766 88.648C63.4166 88.648 63.0966 88.728 62.8166 88.888C62.5366 89.048 62.3046 89.276 62.1206 89.572V94H61.2326ZM69.7385 94.12C69.2425 94.12 68.7745 94.04 68.3345 93.88C67.9025 93.712 67.5265 93.48 67.2065 93.184L67.7465 92.608C68.0265 92.864 68.3345 93.064 68.6705 93.208C69.0065 93.344 69.3505 93.412 69.7025 93.412C70.1825 93.412 70.5745 93.312 70.8785 93.112C71.1825 92.912 71.3345 92.652 71.3345 92.332C71.3345 92.068 71.2425 91.864 71.0585 91.72C70.8825 91.568 70.6025 91.464 70.2185 91.408L69.1745 91.264C68.5745 91.176 68.1265 90.996 67.8305 90.724C67.5425 90.452 67.3985 90.084 67.3985 89.62C67.3985 89.284 67.4945 88.984 67.6865 88.72C67.8785 88.456 68.1425 88.248 68.4785 88.096C68.8225 87.944 69.2145 87.868 69.6545 87.868C70.0945 87.868 70.5065 87.932 70.8905 88.06C71.2745 88.188 71.6505 88.388 72.0185 88.66L71.5505 89.26C71.2145 89.028 70.8865 88.86 70.5665 88.756C70.2545 88.644 69.9345 88.588 69.6065 88.588C69.1905 88.588 68.8545 88.68 68.5985 88.864C68.3425 89.048 68.2145 89.288 68.2145 89.584C68.2145 89.856 68.3025 90.064 68.4785 90.208C68.6545 90.344 68.9385 90.44 69.3305 90.496L70.3745 90.64C70.9745 90.72 71.4225 90.896 71.7185 91.168C72.0225 91.44 72.1745 91.812 72.1745 92.284C72.1745 92.628 72.0665 92.94 71.8505 93.22C71.6345 93.5 71.3425 93.72 70.9745 93.88C70.6145 94.04 70.2025 94.12 69.7385 94.12Z" fill="black"/>
<path d="M32.232 134L30.42 125.6H31.356L32.784 132.536L34.86 125.6H35.76L37.836 132.512L39.276 125.6H40.176L38.364 134H37.428L35.304 126.884L33.168 134H32.232ZM43.595 134.12C43.027 134.12 42.507 133.984 42.035 133.712C41.571 133.432 41.203 133.056 40.931 132.584C40.659 132.112 40.523 131.584 40.523 131C40.523 130.416 40.659 129.888 40.931 129.416C41.203 128.944 41.571 128.572 42.035 128.3C42.507 128.02 43.027 127.88 43.595 127.88C44.171 127.88 44.691 128.02 45.155 128.3C45.619 128.572 45.987 128.944 46.259 129.416C46.531 129.888 46.667 130.416 46.667 131C46.667 131.584 46.531 132.112 46.259 132.584C45.987 133.056 45.619 133.432 45.155 133.712C44.691 133.984 44.171 134.12 43.595 134.12ZM43.595 133.328C44.003 133.328 44.371 133.224 44.699 133.016C45.035 132.808 45.299 132.528 45.491 132.176C45.691 131.824 45.791 131.432 45.791 131C45.791 130.56 45.691 130.168 45.491 129.824C45.299 129.472 45.035 129.192 44.699 128.984C44.371 128.776 44.003 128.672 43.595 128.672C43.187 128.672 42.815 128.776 42.479 128.984C42.151 129.192 41.887 129.472 41.687 129.824C41.495 130.168 41.399 130.56 41.399 131C41.399 131.432 41.495 131.824 41.687 132.176C41.887 132.528 42.151 132.808 42.479 133.016C42.815 133.224 43.187 133.328 43.595 133.328ZM47.9005 134V127.988H48.7885V128.84C48.9725 128.528 49.2045 128.288 49.4845 128.12C49.7725 127.944 50.1005 127.856 50.4685 127.856C50.6765 127.856 50.8645 127.884 51.0325 127.94V128.756C50.9285 128.716 50.8245 128.688 50.7205 128.672C50.6165 128.656 50.5125 128.648 50.4085 128.648C50.0405 128.648 49.7165 128.756 49.4365 128.972C49.1645 129.18 48.9485 129.484 48.7885 129.884V134H47.9005ZM52.049 134V125.6L52.937 125.396V130.7L56.081 127.988H57.161L53.861 130.844L57.317 134H56.105L52.937 131.12V134H52.049ZM60.2596 134.108C59.6836 134.108 59.1596 133.972 58.6876 133.7C58.2236 133.42 57.8516 133.044 57.5716 132.572C57.2996 132.1 57.1636 131.572 57.1636 130.988C57.1636 130.412 57.2956 129.892 57.5596 129.428C57.8236 128.956 58.1796 128.584 58.6276 128.312C59.0756 128.032 59.5756 127.892 60.1276 127.892C60.6636 127.892 61.1436 128.032 61.5676 128.312C61.9996 128.584 62.3396 128.956 62.5876 129.428C62.8436 129.892 62.9716 130.412 62.9716 130.988V131.264H58.0396C58.0876 131.656 58.2116 132.008 58.4116 132.32C58.6196 132.632 58.8876 132.88 59.2156 133.064C59.5436 133.24 59.9036 133.328 60.2956 133.328C60.6076 133.328 60.9116 133.28 61.2076 133.184C61.5036 133.088 61.7516 132.952 61.9516 132.776L62.5036 133.364C62.1676 133.612 61.8156 133.8 61.4476 133.928C61.0876 134.048 60.6916 134.108 60.2596 134.108ZM58.0636 130.556H62.0836C62.0356 130.196 61.9156 129.876 61.7236 129.596C61.5396 129.308 61.3076 129.084 61.0276 128.924C60.7476 128.756 60.4396 128.672 60.1036 128.672C59.7596 128.672 59.4436 128.752 59.1556 128.912C58.8676 129.072 58.6276 129.296 58.4356 129.584C58.2436 129.864 58.1196 130.188 58.0636 130.556ZM64.213 134V127.988H65.101V128.84C65.285 128.528 65.517 128.288 65.797 128.12C66.085 127.944 66.413 127.856 66.781 127.856C66.989 127.856 67.177 127.884 67.345 127.94V128.756C67.241 128.716 67.137 128.688 67.033 128.672C66.929 128.656 66.825 128.648 66.721 128.648C66.353 128.648 66.029 128.756 65.749 128.972C65.477 129.18 65.261 129.484 65.101 129.884V134H64.213ZM70.2229 134.12C69.7269 134.12 69.2589 134.04 68.8189 133.88C68.3869 133.712 68.0109 133.48 67.6909 133.184L68.2309 132.608C68.5109 132.864 68.8189 133.064 69.1549 133.208C69.4909 133.344 69.8349 133.412 70.1869 133.412C70.6669 133.412 71.0589 133.312 71.3629 133.112C71.6669 132.912 71.8189 132.652 71.8189 132.332C71.8189 132.068 71.7269 131.864 71.5429 131.72C71.3669 131.568 71.0869 131.464 70.7029 131.408L69.6589 131.264C69.0589 131.176 68.6109 130.996 68.3149 130.724C68.0269 130.452 67.8829 130.084 67.8829 129.62C67.8829 129.284 67.9789 128.984 68.1709 128.72C68.3629 128.456 68.6269 128.248 68.9629 128.096C69.3069 127.944 69.6989 127.868 70.1389 127.868C70.5789 127.868 70.9909 127.932 71.3749 128.06C71.7589 128.188 72.1349 128.388 72.5029 128.66L72.0349 129.26C71.6989 129.028 71.3709 128.86 71.0509 128.756C70.7389 128.644 70.4189 128.588 70.0909 128.588C69.6749 128.588 69.3389 128.68 69.0829 128.864C68.8269 129.048 68.6989 129.288 68.6989 129.584C68.6989 129.856 68.7869 130.064 68.9629 130.208C69.1389 130.344 69.4229 130.44 69.8149 130.496L70.8589 130.64C71.4589 130.72 71.9069 130.896 72.2029 131.168C72.5069 131.44 72.6589 131.812 72.6589 132.284C72.6589 132.628 72.5509 132.94 72.3349 133.22C72.1189 133.5 71.8269 133.72 71.4589 133.88C71.0989 134.04 70.6869 134.12 70.2229 134.12Z" fill="black"/>
<rect x="83" width="430" height="40" fill="black"/>
<rect x="83" y="110" width="320" height="40" fill="black"/>
<rect x="523" y="110" width="210" height="40" fill="black"/>
<rect x="743" y="110" width="210" height="40" fill="black"/>
<rect x="83" width="101.25" height="40" fill="black"/>
<g clip-path="url(#clip0_302_5935)">
<path fill-rule="evenodd" clip-rule="evenodd" d="M129.877 16.6111C129.758 16.7342 129.689 16.8987 129.685 17.0686C129.681 17.2386 129.743 17.3999 129.856 17.5171L134.793 22.6374L131.043 22.7314C130.961 22.7334 130.881 22.752 130.805 22.7862C130.729 22.8203 130.66 22.8693 130.601 22.9303C130.542 22.9913 130.495 23.0632 130.462 23.1418C130.429 23.2204 130.411 23.3042 130.409 23.3884C130.407 23.4727 130.421 23.5557 130.45 23.6327C130.48 23.7097 130.524 23.7793 130.58 23.8374C130.636 23.8955 130.703 23.9411 130.777 23.9714C130.851 24.0017 130.931 24.0163 131.013 24.0142L136.254 23.8816C136.336 23.8797 136.416 23.8611 136.492 23.827C136.568 23.7929 136.637 23.744 136.696 23.6829C136.755 23.6219 136.802 23.55 136.835 23.4713C136.868 23.3927 136.886 23.3088 136.888 23.2246L137.016 17.7887C137.02 17.6186 136.958 17.4571 136.845 17.3397C136.732 17.2223 136.576 17.1587 136.412 17.1629C136.248 17.167 136.089 17.2386 135.971 17.3618C135.852 17.4851 135.783 17.6499 135.779 17.82L135.688 21.7093L130.751 16.589C130.638 16.4718 130.482 16.4083 130.318 16.4124C130.154 16.4165 129.996 16.488 129.877 16.6111Z" fill="white"/>
</g>
<rect x="184.25" width="10" height="40" fill="black"/>
<rect x="194.25" width="101.25" height="40" fill="black"/>
<g clip-path="url(#clip1_302_5935)">
<path fill-rule="evenodd" clip-rule="evenodd" d="M244.678 15.1008C244.507 15.1008 244.346 15.1654 244.229 15.2805C244.112 15.3956 244.05 15.5516 244.056 15.7143L244.315 22.8228L241.452 20.1882C241.39 20.1312 241.317 20.0859 241.238 20.0551C241.158 20.0242 241.074 20.0083 240.989 20.0083C240.904 20.0083 240.821 20.0242 240.744 20.0551C240.667 20.0859 240.597 20.1312 240.539 20.1882C240.481 20.2453 240.436 20.313 240.407 20.3875C240.377 20.4621 240.363 20.5419 240.366 20.6226C240.369 20.7033 240.389 20.7832 240.424 20.8577C240.459 20.9322 240.509 21 240.571 21.057L244.573 24.7382C244.635 24.7953 244.707 24.8407 244.787 24.8716C244.866 24.9025 244.951 24.9185 245.036 24.9185C245.12 24.9185 245.204 24.9025 245.281 24.8716C245.358 24.8407 245.428 24.7953 245.485 24.7382L249.219 21.057C249.336 20.9418 249.398 20.7855 249.393 20.6226C249.387 20.4597 249.313 20.3034 249.188 20.1882C249.062 20.073 248.896 20.0083 248.725 20.0083C248.554 20.0083 248.392 20.073 248.275 20.1882L245.604 22.8228L245.345 15.7143C245.339 15.5516 245.266 15.3956 245.141 15.2805C245.016 15.1654 244.849 15.1008 244.678 15.1008Z" fill="white"/>
</g>
<rect x="295.5" width="10" height="40" fill="black"/>
<rect x="305.5" width="101.25" height="40" fill="black"/>
<g clip-path="url(#clip2_302_5935)">
<path fill-rule="evenodd" clip-rule="evenodd" d="M360.148 16.8945C360.029 16.7714 359.867 16.6966 359.697 16.6864C359.528 16.6762 359.364 16.7316 359.243 16.8403L353.947 21.5885L353.989 17.8371C353.99 17.7559 353.974 17.6744 353.943 17.5974C353.912 17.5204 353.865 17.4494 353.806 17.3884C353.748 17.3274 353.678 17.2776 353.6 17.2418C353.523 17.2061 353.44 17.1851 353.356 17.1801C353.271 17.175 353.188 17.186 353.11 17.2125C353.032 17.2389 352.961 17.2802 352.901 17.3341C352.841 17.388 352.793 17.4534 352.76 17.5265C352.727 17.5997 352.709 17.6791 352.708 17.7604L352.65 23.0035C352.649 23.0847 352.665 23.1662 352.696 23.2433C352.728 23.3203 352.774 23.3914 352.833 23.4524C352.892 23.5134 352.962 23.5632 353.039 23.599C353.117 23.6347 353.2 23.6556 353.284 23.6605L358.712 23.9857C358.882 23.9959 359.045 23.9405 359.167 23.8317C359.288 23.7228 359.357 23.5695 359.359 23.4054C359.361 23.2413 359.295 23.0799 359.176 22.9567C359.057 22.8335 358.895 22.7586 358.725 22.7484L354.842 22.5166L360.138 17.7683C360.259 17.6596 360.329 17.5065 360.33 17.3426C360.332 17.1788 360.266 17.0176 360.148 16.8945Z" fill="white"/>
</g>
<rect x="406.75" width="10" height="40" fill="black"/>
<rect x="416.75" width="101.25" height="40" fill="black"/>
<g clip-path="url(#clip3_302_5935)">
<path fill-rule="evenodd" clip-rule="evenodd" d="M467.178 15.1008C467.007 15.1008 466.846 15.1654 466.729 15.2805C466.612 15.3956 466.55 15.5516 466.556 15.7143L466.815 22.8228L463.952 20.1882C463.89 20.1312 463.817 20.0859 463.738 20.0551C463.658 20.0242 463.574 20.0083 463.489 20.0083C463.404 20.0083 463.321 20.0242 463.244 20.0551C463.167 20.0859 463.097 20.1312 463.039 20.1882C462.981 20.2453 462.936 20.313 462.907 20.3875C462.877 20.4621 462.863 20.5419 462.866 20.6226C462.869 20.7033 462.889 20.7832 462.924 20.8577C462.959 20.9322 463.009 21 463.071 21.057L467.073 24.7382C467.135 24.7953 467.207 24.8407 467.287 24.8716C467.366 24.9025 467.451 24.9185 467.536 24.9185C467.62 24.9185 467.704 24.9025 467.781 24.8716C467.858 24.8407 467.928 24.7953 467.985 24.7382L471.719 21.057C471.836 20.9418 471.898 20.7855 471.893 20.6226C471.887 20.4597 471.813 20.3034 471.688 20.1882C471.562 20.073 471.396 20.0083 471.225 20.0083C471.054 20.0083 470.892 20.073 470.775 20.1882L468.104 22.8228L467.845 15.7143C467.839 15.5516 467.766 15.3956 467.641 15.2805C467.516 15.1654 467.349 15.1008 467.178 15.1008Z" fill="white"/>
</g>
<rect x="518" width="101.25" height="40" fill="black"/>
<g clip-path="url(#clip4_302_5935)">
<path fill-rule="evenodd" clip-rule="evenodd" d="M564.877 16.6111C564.758 16.7342 564.689 16.8987 564.685 17.0686C564.681 17.2386 564.743 17.3999 564.856 17.5171L569.793 22.6374L566.043 22.7314C565.961 22.7334 565.881 22.752 565.805 22.7862C565.729 22.8203 565.66 22.8693 565.601 22.9303C565.542 22.9913 565.495 23.0632 565.462 23.1418C565.429 23.2204 565.411 23.3042 565.409 23.3884C565.407 23.4727 565.421 23.5557 565.45 23.6327C565.48 23.7097 565.524 23.7793 565.58 23.8374C565.636 23.8955 565.703 23.9411 565.777 23.9714C565.851 24.0017 565.931 24.0163 566.013 24.0142L571.254 23.8816C571.336 23.8797 571.416 23.8611 571.492 23.827C571.568 23.7929 571.637 23.744 571.696 23.6829C571.755 23.6219 571.802 23.55 571.835 23.4713C571.868 23.3927 571.886 23.3088 571.888 23.2246L572.016 17.7887C572.02 17.6186 571.958 17.4571 571.845 17.3397C571.732 17.2223 571.576 17.1587 571.412 17.1629C571.248 17.167 571.089 17.2386 570.971 17.3618C570.852 17.4851 570.783 17.6499 570.779 17.82L570.688 21.7093L565.751 16.589C565.638 16.4718 565.482 16.4083 565.318 16.4124C565.154 16.4165 564.996 16.488 564.877 16.6111Z" fill="white"/>
</g>
<rect x="619.25" width="10" height="40" fill="black"/>
<rect x="629.25" width="101.25" height="40" fill="black"/>
<g clip-path="url(#clip5_302_5935)">
<path fill-rule="evenodd" clip-rule="evenodd" d="M683.626 16.6109C683.507 16.4879 683.349 16.4164 683.185 16.4122C683.021 16.4081 682.865 16.4716 682.752 16.5888L677.815 21.7092L677.724 17.8198C677.722 17.7356 677.704 17.6518 677.671 17.5732C677.638 17.4945 677.591 17.4227 677.532 17.3617C677.474 17.3007 677.404 17.2517 677.328 17.2175C677.253 17.1834 677.172 17.1648 677.091 17.1627C677.009 17.1607 676.929 17.1752 676.855 17.2056C676.781 17.2359 676.714 17.2814 676.658 17.3395C676.602 17.3977 676.558 17.4672 676.528 17.5442C676.499 17.6213 676.485 17.7043 676.487 17.7885L676.615 23.2244C676.617 23.3087 676.635 23.3925 676.668 23.4712C676.701 23.5498 676.748 23.6217 676.807 23.6828C676.865 23.7438 676.935 23.7928 677.011 23.8269C677.087 23.861 677.167 23.8795 677.249 23.8815L682.49 24.0141C682.654 24.0182 682.81 23.9546 682.923 23.8373C683.036 23.7199 683.098 23.5584 683.094 23.3883C683.09 23.2182 683.021 23.0534 682.902 22.9301C682.783 22.8069 682.624 22.7353 682.46 22.7312L678.71 22.6372L683.647 17.5169C683.76 17.3997 683.821 17.2384 683.818 17.0685C683.814 16.8986 683.745 16.734 683.626 16.6109Z" fill="white"/>
</g>
<rect x="730.5" width="10" height="40" fill="black"/>
<rect x="740.5" width="101.25" height="40" fill="black"/>
<g clip-path="url(#clip6_302_5935)">
<path fill-rule="evenodd" clip-rule="evenodd" d="M787.375 16.6111C787.256 16.7342 787.187 16.8987 787.183 17.0687C787.179 17.2386 787.241 17.3999 787.354 17.5171L792.291 22.6374L788.541 22.7314C788.46 22.7334 788.379 22.752 788.303 22.7862C788.227 22.8203 788.158 22.8693 788.099 22.9303C788.04 22.9913 787.993 23.0632 787.96 23.1418C787.927 23.2204 787.909 23.3042 787.907 23.3884C787.905 23.4727 787.919 23.5557 787.948 23.6327C787.978 23.7097 788.022 23.7793 788.078 23.8374C788.134 23.8955 788.201 23.941 788.275 23.9714C788.349 24.0017 788.429 24.0163 788.511 24.0142L793.752 23.8816C793.834 23.8797 793.914 23.8611 793.99 23.827C794.066 23.7929 794.135 23.744 794.194 23.6829C794.253 23.6219 794.3 23.55 794.333 23.4713C794.366 23.3927 794.384 23.3088 794.386 23.2246L794.514 17.7887C794.518 17.6186 794.456 17.4571 794.343 17.3397C794.23 17.2223 794.074 17.1587 793.91 17.1629C793.746 17.167 793.587 17.2386 793.469 17.3618C793.35 17.4851 793.281 17.6499 793.277 17.82L793.186 21.7093L788.249 16.589C788.136 16.4718 787.98 16.4083 787.816 16.4124C787.652 16.4165 787.494 16.488 787.375 16.6111Z" fill="white"/>
</g>
<rect x="841.75" width="10" height="40" fill="black"/>
<rect x="851.75" width="101.25" height="40" fill="black"/>
<g clip-path="url(#clip7_302_5935)">
<path fill-rule="evenodd" clip-rule="evenodd" d="M906.126 16.6109C906.007 16.4879 905.849 16.4164 905.685 16.4122C905.521 16.4081 905.365 16.4716 905.252 16.5888L900.315 21.7092L900.224 17.8198C900.222 17.7356 900.204 17.6518 900.171 17.5732C900.138 17.4945 900.091 17.4227 900.032 17.3617C899.974 17.3007 899.904 17.2517 899.828 17.2175C899.753 17.1834 899.672 17.1648 899.591 17.1627C899.509 17.1607 899.429 17.1752 899.355 17.2056C899.281 17.2359 899.214 17.2814 899.158 17.3395C899.102 17.3977 899.058 17.4672 899.028 17.5442C898.999 17.6213 898.985 17.7043 898.987 17.7885L899.115 23.2244C899.117 23.3087 899.135 23.3925 899.168 23.4712C899.201 23.5498 899.248 23.6217 899.307 23.6828C899.365 23.7438 899.435 23.7928 899.511 23.8269C899.587 23.861 899.667 23.8795 899.749 23.8815L904.99 24.0141C905.154 24.0182 905.31 23.9546 905.423 23.8373C905.536 23.7199 905.598 23.5584 905.594 23.3883C905.59 23.2182 905.521 23.0534 905.402 22.9301C905.283 22.8069 905.124 22.7353 904.96 22.7312L901.21 22.6372L906.147 17.5169C906.26 17.3997 906.321 17.2384 906.318 17.0685C906.314 16.8986 906.245 16.734 906.126 16.6109Z" fill="white"/>
</g>
<rect x="83" y="50" width="320" height="20" fill="black"/>
<path fill-rule="evenodd" clip-rule="evenodd" d="M242.911 64.4592C243.057 64.4592 243.198 64.3951 243.301 64.2812C243.405 64.1672 243.463 64.0127 243.463 63.8515V56.811L245.834 59.4204C245.885 59.4769 245.946 59.5217 246.014 59.5523C246.081 59.5828 246.153 59.5986 246.225 59.5986C246.298 59.5986 246.37 59.5828 246.437 59.5523C246.504 59.5217 246.565 59.4769 246.616 59.4204C246.668 59.3639 246.708 59.2968 246.736 59.223C246.764 59.1491 246.778 59.07 246.778 58.9901C246.778 58.9102 246.764 58.8311 246.736 58.7573C246.708 58.6835 246.668 58.6164 246.616 58.5599L243.302 54.9139C243.25 54.8573 243.189 54.8124 243.122 54.7818C243.055 54.7511 242.983 54.7354 242.911 54.7354C242.838 54.7354 242.766 54.7511 242.699 54.7818C242.632 54.8124 242.571 54.8573 242.52 54.9139L239.205 58.5599C239.101 58.674 239.043 58.8288 239.043 58.9901C239.043 59.1515 239.101 59.3063 239.205 59.4204C239.309 59.5345 239.449 59.5986 239.596 59.5986C239.743 59.5986 239.883 59.5345 239.987 59.4204L242.358 56.811V63.8515C242.358 64.0127 242.416 64.1672 242.52 64.2812C242.624 64.3951 242.764 64.4592 242.911 64.4592Z" fill="white"/>
<rect x="523" y="50" width="210" height="20" fill="black"/>
<g clip-path="url(#clip8_302_5935)">
<path fill-rule="evenodd" clip-rule="evenodd" d="M624.464 63.6777C624.581 63.7949 624.74 63.8608 624.906 63.8608C625.071 63.8608 625.23 63.7949 625.348 63.6777L630.468 58.5574L630.467 62.3519C630.467 62.4341 630.483 62.5155 630.515 62.5914C630.546 62.6673 630.592 62.7363 630.65 62.7944C630.708 62.8525 630.777 62.8986 630.853 62.9301C630.929 62.9615 631.011 62.9777 631.093 62.9777C631.175 62.9777 631.256 62.9615 631.332 62.9301C631.408 62.8986 631.477 62.8525 631.535 62.7944C631.593 62.7363 631.64 62.6673 631.671 62.5914C631.702 62.5155 631.719 62.4341 631.719 62.3519L631.719 57.0486C631.719 56.9664 631.703 56.885 631.671 56.809C631.64 56.733 631.594 56.664 631.536 56.6059C631.477 56.5477 631.408 56.5016 631.332 56.4702C631.256 56.4388 631.175 56.4227 631.093 56.4228L625.79 56.4228C625.624 56.4228 625.464 56.4887 625.347 56.6061C625.23 56.7235 625.164 56.8826 625.164 57.0486C625.164 57.2146 625.23 57.3737 625.347 57.4911C625.464 57.6085 625.624 57.6744 625.79 57.6744L629.584 57.6735L624.464 62.7938C624.346 62.9111 624.281 63.07 624.281 63.2358C624.281 63.4016 624.346 63.5605 624.464 63.6777Z" fill="white"/>
</g>
<rect x="743" y="50" width="210" height="20" fill="black"/>
<g clip-path="url(#clip9_302_5935)">
<path fill-rule="evenodd" clip-rule="evenodd" d="M851.821 63.8078C851.938 63.6906 852.004 63.5316 852.004 63.3658C852.004 63.2001 851.938 63.0411 851.821 62.9239L846.695 57.8036L850.494 57.8045C850.576 57.8045 850.658 57.7883 850.734 57.7568C850.81 57.7254 850.879 57.6793 850.937 57.6212C850.995 57.5631 851.041 57.4941 851.073 57.4181C851.104 57.3422 851.12 57.2608 851.12 57.1787C851.12 57.0965 851.104 57.0151 851.073 56.9392C851.041 56.8633 850.995 56.7943 850.937 56.7362C850.879 56.6781 850.81 56.632 850.734 56.6005C850.658 56.5691 850.576 56.5529 850.494 56.5529L845.184 56.5529C845.102 56.5528 845.021 56.5689 844.945 56.6003C844.869 56.6317 844.799 56.6778 844.741 56.7359C844.683 56.7941 844.637 56.8631 844.605 56.9391C844.574 57.015 844.558 57.0965 844.558 57.1787L844.558 62.482C844.558 62.6479 844.624 62.8071 844.741 62.9245C844.859 63.0418 845.018 63.1078 845.184 63.1078C845.351 63.1078 845.51 63.0418 845.627 62.9245C845.745 62.8071 845.811 62.6479 845.811 62.482L845.81 58.6874L850.936 63.8078C851.054 63.925 851.213 63.9908 851.379 63.9908C851.545 63.9908 851.704 63.925 851.821 63.8078Z" fill="white"/>
</g>
<rect x="83" y="80" width="100" height="20" fill="black"/>
<path fill-rule="evenodd" clip-rule="evenodd" d="M129.465 93.5356C129.582 93.6528 129.741 93.7187 129.907 93.7187C130.072 93.7187 130.231 93.6528 130.349 93.5356L135.469 88.4153L135.468 92.2098C135.468 92.292 135.484 92.3734 135.516 92.4493C135.547 92.5252 135.593 92.5942 135.651 92.6523C135.709 92.7104 135.778 92.7565 135.854 92.788C135.93 92.8194 136.012 92.8356 136.094 92.8356C136.176 92.8356 136.257 92.8194 136.333 92.788C136.409 92.7565 136.478 92.7104 136.536 92.6523C136.594 92.5942 136.641 92.5252 136.672 92.4493C136.703 92.3734 136.72 92.292 136.72 92.2098L136.72 86.9065C136.72 86.8243 136.704 86.7429 136.672 86.6669C136.641 86.5909 136.595 86.5219 136.537 86.4638C136.478 86.4056 136.409 86.3596 136.333 86.3281C136.257 86.2967 136.176 86.2806 136.094 86.2807L130.791 86.2807C130.625 86.2807 130.465 86.3467 130.348 86.464C130.231 86.5814 130.165 86.7405 130.165 86.9065C130.165 87.0725 130.231 87.2317 130.348 87.349C130.465 87.4664 130.625 87.5323 130.791 87.5323L134.585 87.5314L129.465 92.6518C129.347 92.769 129.282 92.9279 129.282 93.0937C129.282 93.2595 129.347 93.4184 129.465 93.5356Z" fill="white"/>
<rect x="193" y="80" width="100" height="20" fill="black"/>
<g clip-path="url(#clip10_302_5935)">
<path fill-rule="evenodd" clip-rule="evenodd" d="M242.9 94.9586C243.066 94.9586 243.225 94.8928 243.342 94.7756C243.459 94.6584 243.525 94.4994 243.525 94.3336V87.0924L246.208 89.7761C246.266 89.8342 246.335 89.8803 246.411 89.9118C246.487 89.9432 246.568 89.9594 246.65 89.9594C246.732 89.9594 246.814 89.9432 246.89 89.9118C246.966 89.8803 247.035 89.8342 247.093 89.7761C247.151 89.718 247.197 89.649 247.228 89.5731C247.26 89.4972 247.276 89.4158 247.276 89.3336C247.276 89.2515 247.26 89.1701 247.228 89.0942C247.197 89.0182 247.151 88.9492 247.093 88.8911L243.343 85.1411C243.285 85.0829 243.216 85.0368 243.14 85.0052C243.064 84.9737 242.982 84.9575 242.9 84.9575C242.818 84.9575 242.737 84.9737 242.661 85.0052C242.585 85.0368 242.516 85.0829 242.458 85.1411L238.708 88.8911C238.59 89.0085 238.524 89.1677 238.524 89.3336C238.524 89.4996 238.59 89.6588 238.708 89.7761C238.825 89.8935 238.984 89.9594 239.15 89.9594C239.316 89.9594 239.475 89.8935 239.593 89.7761L242.275 87.0924V94.3336C242.275 94.4994 242.341 94.6584 242.458 94.7756C242.575 94.8928 242.734 94.9586 242.9 94.9586Z" fill="white"/>
</g>
<rect x="303" y="80" width="100" height="20" fill="black"/>
<g clip-path="url(#clip11_302_5935)">
<path fill-rule="evenodd" clip-rule="evenodd" d="M356.678 93.3927C356.795 93.2755 356.861 93.1166 356.861 92.9508C356.861 92.785 356.795 92.6261 356.678 92.5089L351.557 87.3885L355.352 87.3894C355.434 87.3894 355.515 87.3732 355.591 87.3418C355.667 87.3103 355.736 87.2642 355.794 87.2061C355.853 87.148 355.899 87.079 355.93 87.0031C355.962 86.9272 355.978 86.8458 355.978 86.7636C355.978 86.6814 355.962 86.6001 355.93 86.5241C355.899 86.4482 355.853 86.3792 355.794 86.3211C355.736 86.263 355.667 86.2169 355.591 86.1855C355.515 86.154 355.434 86.1378 355.352 86.1378L350.049 86.1378C349.966 86.1377 349.885 86.1538 349.809 86.1853C349.733 86.2167 349.664 86.2628 349.606 86.3209C349.548 86.379 349.502 86.448 349.47 86.524C349.439 86.6 349.423 86.6814 349.423 86.7636L349.423 92.0669C349.423 92.2329 349.489 92.3921 349.606 92.5094C349.723 92.6268 349.883 92.6927 350.049 92.6927C350.215 92.6927 350.374 92.6268 350.491 92.5094C350.608 92.3921 350.674 92.2329 350.674 92.0669L350.674 88.2724L355.794 93.3927C355.911 93.51 356.07 93.5758 356.236 93.5758C356.402 93.5758 356.561 93.51 356.678 93.3927Z" fill="white"/>
</g>
<rect x="413" y="80" width="100" height="20" fill="black"/>
<g clip-path="url(#clip12_302_5935)">
<path fill-rule="evenodd" clip-rule="evenodd" d="M463.427 85.6382C463.261 85.6382 463.102 85.7041 462.985 85.8214C462.868 85.9387 462.802 86.0977 462.802 86.2636L462.81 93.5089L460.123 90.8237C460.065 90.7655 459.996 90.7194 459.92 90.6879C459.844 90.6565 459.763 90.6403 459.68 90.6403C459.598 90.6403 459.517 90.6565 459.441 90.6879C459.365 90.7194 459.296 90.7655 459.238 90.8237C459.18 90.8818 459.134 90.9508 459.102 91.0268C459.071 91.1028 459.055 91.1842 459.055 91.2664C459.055 91.3486 459.071 91.4301 459.103 91.506C459.134 91.582 459.181 91.651 459.239 91.7092L462.995 95.4613C463.053 95.5195 463.122 95.5657 463.198 95.5973C463.274 95.6288 463.356 95.645 463.438 95.645C463.52 95.645 463.602 95.6288 463.678 95.5973C463.754 95.5657 463.823 95.5195 463.881 95.4613L467.629 91.7092C467.746 91.5917 467.812 91.4325 467.811 91.2664C467.811 91.1004 467.745 90.9411 467.628 90.8237C467.51 90.7062 467.351 90.6403 467.185 90.6403C467.019 90.6403 466.859 90.7062 466.742 90.8237L464.061 93.5089L464.053 86.2636C464.053 86.0977 463.987 85.9387 463.869 85.8214C463.752 85.7041 463.593 85.6382 463.427 85.6382Z" fill="white"/>
</g>
<rect x="523" y="80" width="100" height="20" fill="black"/>
<path fill-rule="evenodd" clip-rule="evenodd" d="M569.465 93.5356C569.582 93.6528 569.741 93.7187 569.907 93.7187C570.072 93.7187 570.231 93.6528 570.349 93.5356L575.469 88.4153L575.468 92.2098C575.468 92.292 575.484 92.3734 575.516 92.4493C575.547 92.5252 575.593 92.5942 575.651 92.6523C575.709 92.7104 575.778 92.7565 575.854 92.788C575.93 92.8194 576.012 92.8356 576.094 92.8356C576.176 92.8356 576.257 92.8194 576.333 92.788C576.409 92.7565 576.478 92.7104 576.536 92.6523C576.594 92.5942 576.641 92.5252 576.672 92.4493C576.703 92.3734 576.72 92.292 576.72 92.2098L576.72 86.9065C576.72 86.8243 576.704 86.7429 576.672 86.6669C576.641 86.5909 576.595 86.5219 576.537 86.4638C576.478 86.4056 576.409 86.3596 576.333 86.3281C576.257 86.2967 576.176 86.2806 576.094 86.2807L570.791 86.2807C570.625 86.2807 570.465 86.3467 570.348 86.464C570.231 86.5814 570.165 86.7405 570.165 86.9065C570.165 87.0725 570.231 87.2317 570.348 87.349C570.465 87.4664 570.625 87.5323 570.791 87.5323L574.585 87.5314L569.465 92.6518C569.347 92.769 569.282 92.9279 569.282 93.0937C569.282 93.2595 569.347 93.4184 569.465 93.5356Z" fill="white"/>
<rect x="633" y="80" width="100" height="20" fill="black"/>
<g clip-path="url(#clip13_302_5935)">
<path fill-rule="evenodd" clip-rule="evenodd" d="M686.536 93.5358C686.653 93.4186 686.719 93.2596 686.719 93.0939C686.719 92.9281 686.653 92.7691 686.536 92.6519L681.416 87.5316L685.21 87.5325C685.292 87.5325 685.374 87.5163 685.45 87.4848C685.526 87.4534 685.595 87.4073 685.653 87.3492C685.711 87.2911 685.757 87.2221 685.788 87.1462C685.82 87.0702 685.836 86.9889 685.836 86.9067C685.836 86.8245 685.82 86.7431 685.788 86.6672C685.757 86.5913 685.711 86.5223 685.653 86.4642C685.595 86.4061 685.526 86.36 685.45 86.3285C685.374 86.2971 685.292 86.2809 685.21 86.2809L679.907 86.2809C679.825 86.2808 679.743 86.2969 679.667 86.3283C679.591 86.3597 679.522 86.4058 679.464 86.464C679.406 86.5221 679.36 86.5911 679.329 86.6671C679.297 86.7431 679.281 86.8245 679.281 86.9067L679.281 92.21C679.281 92.376 679.347 92.5351 679.464 92.6525C679.582 92.7698 679.741 92.8358 679.907 92.8358C680.073 92.8358 680.232 92.7698 680.349 92.6525C680.467 92.5351 680.533 92.376 680.533 92.21L680.532 88.4155L685.652 93.5358C685.769 93.653 685.928 93.7189 686.094 93.7189C686.26 93.7189 686.419 93.653 686.536 93.5358Z" fill="white"/>
</g>
<rect x="743" y="80" width="100" height="20" fill="black"/>
<path fill-rule="evenodd" clip-rule="evenodd" d="M789.465 93.5356C789.582 93.6528 789.741 93.7187 789.907 93.7187C790.072 93.7187 790.231 93.6528 790.349 93.5356L795.469 88.4153L795.468 92.2098C795.468 92.292 795.484 92.3734 795.516 92.4493C795.547 92.5252 795.593 92.5942 795.651 92.6523C795.709 92.7104 795.778 92.7565 795.854 92.788C795.93 92.8194 796.012 92.8356 796.094 92.8356C796.176 92.8356 796.257 92.8194 796.333 92.788C796.409 92.7565 796.478 92.7104 796.536 92.6523C796.594 92.5942 796.641 92.5252 796.672 92.4493C796.703 92.3734 796.72 92.292 796.72 92.2098L796.72 86.9065C796.72 86.8243 796.704 86.7429 796.672 86.6669C796.641 86.5909 796.595 86.5219 796.537 86.4638C796.478 86.4056 796.409 86.3596 796.333 86.3281C796.257 86.2967 796.176 86.2806 796.094 86.2807L790.791 86.2807C790.625 86.2807 790.465 86.3467 790.348 86.464C790.231 86.5814 790.165 86.7405 790.165 86.9065C790.165 87.0725 790.231 87.2317 790.348 87.349C790.465 87.4664 790.625 87.5323 790.791 87.5323L794.585 87.5314L789.465 92.6518C789.347 92.769 789.282 92.9279 789.282 93.0937C789.282 93.2595 789.347 93.4184 789.465 93.5356Z" fill="white"/>
<rect x="853" y="80" width="100" height="20" fill="black"/>
<g clip-path="url(#clip14_302_5935)">
<path fill-rule="evenodd" clip-rule="evenodd" d="M906.819 93.8078C906.937 93.6906 907.002 93.5316 907.002 93.3658C907.002 93.2001 906.937 93.0411 906.819 92.9239L901.693 87.8036L905.492 87.8044C905.574 87.8044 905.656 87.7883 905.732 87.7568C905.808 87.7254 905.877 87.6793 905.935 87.6212C905.993 87.563 906.039 87.4941 906.071 87.4181C906.102 87.3422 906.118 87.2608 906.118 87.1787C906.118 87.0965 906.102 87.0151 906.071 86.9392C906.039 86.8633 905.993 86.7943 905.935 86.7362C905.877 86.678 905.808 86.632 905.732 86.6005C905.656 86.5691 905.574 86.5529 905.492 86.5529L900.183 86.5529C900.1 86.5528 900.019 86.5689 899.943 86.6003C899.867 86.6317 899.797 86.6778 899.739 86.7359C899.681 86.7941 899.635 86.8631 899.603 86.9391C899.572 87.015 899.556 87.0965 899.556 87.1787L899.556 92.482C899.556 92.6479 899.622 92.8071 899.74 92.9245C899.857 93.0418 900.016 93.1077 900.183 93.1077C900.349 93.1077 900.508 93.0418 900.626 92.9245C900.743 92.8071 900.809 92.6479 900.809 92.482L900.808 88.6874L905.934 93.8078C906.052 93.925 906.211 93.9908 906.377 93.9908C906.543 93.9908 906.702 93.925 906.819 93.8078Z" fill="white"/>
</g>
<rect x="83" y="110" width="100" height="40" fill="black"/>
<g clip-path="url(#clip15_302_5935)">
<path fill-rule="evenodd" clip-rule="evenodd" d="M129.617 133.599C129.734 133.716 129.893 133.782 130.059 133.782C130.225 133.782 130.384 133.716 130.501 133.599L135.621 128.478L135.62 132.273C135.62 132.355 135.637 132.436 135.668 132.512C135.699 132.588 135.746 132.657 135.804 132.715C135.862 132.773 135.931 132.82 136.007 132.851C136.083 132.882 136.164 132.899 136.246 132.899C136.328 132.899 136.41 132.882 136.486 132.851C136.562 132.82 136.631 132.773 136.689 132.715C136.747 132.657 136.793 132.588 136.824 132.512C136.856 132.436 136.872 132.355 136.872 132.273L136.872 126.969C136.872 126.887 136.856 126.806 136.825 126.73C136.793 126.654 136.747 126.585 136.689 126.527C136.631 126.469 136.562 126.423 136.486 126.391C136.41 126.36 136.328 126.344 136.246 126.344L130.943 126.344C130.777 126.344 130.618 126.41 130.5 126.527C130.383 126.644 130.317 126.804 130.317 126.969C130.317 127.135 130.383 127.295 130.5 127.412C130.618 127.529 130.777 127.595 130.943 127.595L134.737 127.594L129.617 132.715C129.5 132.832 129.434 132.991 129.434 133.157C129.434 133.322 129.5 133.481 129.617 133.599Z" fill="white"/>
</g>
<rect x="193" y="110" width="100" height="40" fill="black"/>
<g clip-path="url(#clip16_302_5935)">
<path fill-rule="evenodd" clip-rule="evenodd" d="M243 135C243.166 135 243.325 134.934 243.442 134.817C243.559 134.7 243.625 134.541 243.625 134.375L243.625 127.134L246.307 129.818C246.365 129.876 246.434 129.922 246.51 129.953C246.586 129.985 246.668 130.001 246.75 130.001C246.832 130.001 246.913 129.985 246.989 129.953C247.065 129.922 247.134 129.876 247.192 129.818C247.25 129.76 247.297 129.691 247.328 129.615C247.359 129.539 247.376 129.457 247.376 129.375C247.376 129.293 247.359 129.212 247.328 129.136C247.297 129.06 247.25 128.991 247.192 128.933L243.442 125.183C243.384 125.124 243.315 125.078 243.239 125.047C243.163 125.015 243.082 124.999 243 124.999C242.918 124.999 242.836 125.015 242.76 125.047C242.684 125.078 242.615 125.124 242.557 125.183L238.807 128.933C238.69 129.05 238.624 129.209 238.624 129.375C238.624 129.541 238.69 129.7 238.807 129.818C238.925 129.935 239.084 130.001 239.25 130.001C239.416 130.001 239.575 129.935 239.692 129.818L242.375 127.134L242.375 134.375C242.375 134.541 242.441 134.7 242.558 134.817C242.675 134.934 242.834 135 243 135Z" fill="white"/>
</g>
<rect x="303" y="110" width="100" height="40" fill="black"/>
<g clip-path="url(#clip17_302_5935)">
<path fill-rule="evenodd" clip-rule="evenodd" d="M356.46 133.354C356.58 133.234 356.648 133.075 356.648 132.914C356.648 132.752 356.581 132.6 356.461 132.491L351.223 127.741L355.109 127.556C355.194 127.552 355.277 127.533 355.355 127.498C355.433 127.464 355.503 127.415 355.563 127.356C355.622 127.296 355.67 127.227 355.702 127.151C355.734 127.075 355.751 126.995 355.751 126.915C355.751 126.835 355.735 126.756 355.703 126.683C355.67 126.611 355.623 126.546 355.564 126.492C355.504 126.438 355.434 126.396 355.356 126.369C355.278 126.342 355.195 126.33 355.111 126.334L349.68 126.593C349.596 126.597 349.512 126.617 349.434 126.651C349.357 126.685 349.286 126.734 349.226 126.793C349.167 126.853 349.119 126.923 349.087 126.998C349.055 127.074 349.038 127.154 349.038 127.235L349.032 132.413C349.032 132.575 349.099 132.728 349.219 132.837C349.339 132.945 349.502 133.002 349.672 132.994C349.842 132.986 350.005 132.914 350.125 132.793C350.246 132.673 350.313 132.514 350.314 132.352L350.317 128.647L355.555 133.397C355.675 133.506 355.838 133.562 356.007 133.554C356.177 133.546 356.34 133.474 356.46 133.354Z" fill="white"/>
</g>
<rect x="413" y="110" width="100" height="40" fill="black"/>
<g clip-path="url(#clip18_302_5935)">
<path fill-rule="evenodd" clip-rule="evenodd" d="M463 135C463.166 135 463.325 134.934 463.442 134.817C463.559 134.7 463.625 134.541 463.625 134.375V127.134L466.307 129.818C466.365 129.876 466.434 129.922 466.51 129.953C466.586 129.985 466.668 130.001 466.75 130.001C466.832 130.001 466.913 129.985 466.989 129.953C467.065 129.922 467.134 129.876 467.192 129.818C467.25 129.76 467.297 129.691 467.328 129.615C467.359 129.539 467.376 129.457 467.376 129.375C467.376 129.293 467.359 129.212 467.328 129.136C467.297 129.06 467.25 128.991 467.192 128.933L463.442 125.183C463.384 125.124 463.315 125.078 463.239 125.047C463.163 125.015 463.082 124.999 463 124.999C462.918 124.999 462.836 125.015 462.76 125.047C462.684 125.078 462.615 125.124 462.557 125.183L458.807 128.933C458.69 129.05 458.624 129.209 458.624 129.375C458.624 129.541 458.69 129.7 458.807 129.818C458.925 129.935 459.084 130.001 459.25 130.001C459.416 130.001 459.575 129.935 459.692 129.818L462.375 127.134V134.375C462.375 134.541 462.441 134.7 462.558 134.817C462.675 134.934 462.834 135 463 135Z" fill="white"/>
</g>
<rect x="523" y="110" width="100" height="40" fill="black"/>
<g clip-path="url(#clip19_302_5935)">
<path fill-rule="evenodd" clip-rule="evenodd" d="M569.617 133.599C569.734 133.716 569.893 133.782 570.059 133.782C570.225 133.782 570.384 133.716 570.501 133.599L575.621 128.478L575.62 132.273C575.62 132.355 575.637 132.436 575.668 132.512C575.699 132.588 575.746 132.657 575.804 132.715C575.862 132.773 575.931 132.82 576.007 132.851C576.083 132.882 576.164 132.899 576.246 132.899C576.328 132.899 576.41 132.882 576.486 132.851C576.562 132.82 576.631 132.773 576.689 132.715C576.747 132.657 576.793 132.588 576.824 132.512C576.856 132.436 576.872 132.355 576.872 132.273L576.872 126.969C576.872 126.887 576.856 126.806 576.825 126.73C576.793 126.654 576.747 126.585 576.689 126.527C576.631 126.469 576.562 126.423 576.486 126.391C576.41 126.36 576.328 126.344 576.246 126.344L570.943 126.344C570.777 126.344 570.618 126.41 570.5 126.527C570.383 126.644 570.317 126.804 570.317 126.969C570.317 127.135 570.383 127.295 570.5 127.412C570.618 127.529 570.777 127.595 570.943 127.595L574.737 127.594L569.617 132.715C569.5 132.832 569.434 132.991 569.434 133.157C569.434 133.322 569.5 133.481 569.617 133.599Z" fill="white"/>
</g>
<rect x="633" y="110" width="100" height="40" fill="black"/>
<g clip-path="url(#clip20_302_5935)">
<path fill-rule="evenodd" clip-rule="evenodd" d="M686.383 133.599C686.5 133.482 686.566 133.323 686.566 133.157C686.566 132.991 686.5 132.832 686.383 132.715L681.262 127.595L685.057 127.595C685.139 127.595 685.221 127.579 685.296 127.548C685.372 127.516 685.441 127.47 685.499 127.412C685.558 127.354 685.604 127.285 685.635 127.209C685.667 127.133 685.683 127.052 685.683 126.97C685.683 126.887 685.667 126.806 685.635 126.73C685.604 126.654 685.558 126.585 685.499 126.527C685.441 126.469 685.372 126.423 685.296 126.392C685.221 126.36 685.139 126.344 685.057 126.344L679.754 126.344C679.671 126.344 679.59 126.36 679.514 126.391C679.438 126.423 679.369 126.469 679.311 126.527C679.253 126.585 679.207 126.654 679.175 126.73C679.144 126.806 679.128 126.887 679.128 126.97L679.128 132.273C679.128 132.439 679.194 132.598 679.311 132.715C679.429 132.833 679.588 132.899 679.754 132.899C679.92 132.899 680.079 132.833 680.196 132.715C680.314 132.598 680.379 132.439 680.379 132.273L680.379 128.478L685.499 133.599C685.616 133.716 685.775 133.782 685.941 133.782C686.107 133.782 686.266 133.716 686.383 133.599Z" fill="white"/>
</g>
<rect x="743" y="110" width="100" height="40" fill="black"/>
<g clip-path="url(#clip21_302_5935)">
<path fill-rule="evenodd" clip-rule="evenodd" d="M789.778 133.599C789.895 133.722 790.052 133.793 790.214 133.797C790.376 133.801 790.529 133.738 790.641 133.621L795.517 128.5L795.607 132.39C795.609 132.474 795.627 132.558 795.659 132.636C795.692 132.715 795.738 132.787 795.796 132.848C795.854 132.909 795.923 132.958 795.998 132.992C796.073 133.026 796.152 133.045 796.233 133.047C796.313 133.049 796.392 133.034 796.465 133.004C796.539 132.974 796.605 132.928 796.66 132.87C796.716 132.812 796.759 132.742 796.788 132.665C796.817 132.588 796.831 132.505 796.829 132.421L796.702 126.985C796.7 126.901 796.683 126.817 796.65 126.738C796.618 126.66 796.571 126.588 796.513 126.527C796.455 126.466 796.386 126.417 796.312 126.383C796.237 126.348 796.157 126.33 796.077 126.328L790.9 126.195C790.737 126.191 790.584 126.255 790.472 126.372C790.36 126.49 790.3 126.651 790.304 126.821C790.307 126.991 790.376 127.156 790.493 127.279C790.61 127.403 790.767 127.474 790.929 127.478L794.633 127.572L789.757 132.693C789.645 132.81 789.585 132.971 789.589 133.141C789.593 133.311 789.661 133.475 789.778 133.599Z" fill="white"/>
</g>
<rect x="853" y="110" width="100" height="40" fill="black"/>
<g clip-path="url(#clip22_302_5935)">
<path fill-rule="evenodd" clip-rule="evenodd" d="M906.383 133.599C906.5 133.482 906.566 133.323 906.566 133.157C906.566 132.991 906.5 132.832 906.383 132.715L901.262 127.595L905.057 127.595C905.139 127.595 905.221 127.579 905.296 127.548C905.372 127.516 905.441 127.47 905.499 127.412C905.558 127.354 905.604 127.285 905.635 127.209C905.667 127.133 905.683 127.052 905.683 126.97C905.683 126.887 905.667 126.806 905.635 126.73C905.604 126.654 905.558 126.585 905.499 126.527C905.441 126.469 905.372 126.423 905.296 126.392C905.221 126.36 905.139 126.344 905.057 126.344L899.754 126.344C899.671 126.344 899.59 126.36 899.514 126.391C899.438 126.423 899.369 126.469 899.311 126.527C899.253 126.585 899.207 126.654 899.175 126.73C899.144 126.806 899.128 126.887 899.128 126.97L899.128 132.273C899.128 132.439 899.194 132.598 899.311 132.715C899.429 132.833 899.588 132.899 899.754 132.899C899.92 132.899 900.079 132.833 900.196 132.715C900.314 132.598 900.379 132.439 900.379 132.273L900.379 128.478L905.499 133.599C905.616 133.716 905.775 133.782 905.941 133.782C906.107 133.782 906.266 133.716 906.383 133.599Z" fill="white"/>
</g>
<rect x="183" y="20" width="10" height="21" fill="white"/>
<rect x="293" y="20" width="10" height="21" fill="white"/>
<rect x="403" y="20" width="10" height="21" fill="white"/>
<rect x="513" y="20" width="10" height="21" fill="white"/>
<g clip-path="url(#clip23_302_5935)">
<path d="M149.666 155H116.333V175H149.666V155Z" fill="black"/>
<path d="M149.666 161.667H116.333V175H149.666V161.667Z" fill="#DD0000"/>
<path d="M149.666 168.333H116.333V175H149.666V168.333Z" fill="#FFCE00"/>
</g>
<rect x="115.833" y="154.5" width="34.3333" height="21" stroke="#BDBEBD"/>
<g clip-path="url(#clip24_302_5935)">
<path d="M231.462 155H254.539V175H231.462V155Z" fill="#EF3340"/>
<path d="M231.462 155H246.847V175H231.462V155Z" fill="#FDDA25"/>
<path d="M231.462 155H239.154V175H231.462V155Z" fill="black"/>
</g>
<rect x="230.962" y="154.5" width="24.0769" height="21" stroke="#BDBEBD"/>
<g clip-path="url(#clip25_302_5935)">
<path d="M338 155H368V175H338" fill="#CE0000"/>
<path d="M338 159H368V163H338V167H368V171H338" fill="white"/>
<path d="M338 155L355.32 165L338 175" fill="#87CEFA"/>
<path d="M343.774 161.667L341.814 167.697L346.944 163.97H340.604L345.734 167.697" fill="white"/>
</g>
<rect x="337.5" y="154.5" width="31" height="21" stroke="#BDBEBD"/>
<g clip-path="url(#clip26_302_5935)">
<path d="M444 155H482V175H444" fill="#BF0A30"/>
<path d="M444 157.308H482H444ZM482 160.385H444H482ZM444 163.461H482H444ZM482 166.538H444H482ZM444 169.615H482H444ZM482 172.692H444H482Z" fill="black"/>
<path d="M444 157.308H482M482 160.385H444M444 163.461H482M482 166.538H444M444 169.615H482M482 172.692H444" stroke="white" stroke-width="1.53846"/>
<path d="M444 155H459.2V165.769H444" fill="#00205B"/>
<path d="M445.267 155.461L445.629 156.575L444.682 155.887H445.852L444.905 156.575L445.267 155.461Z" fill="white"/>
<path d="M445.267 157.615L445.629 158.728L444.682 158.04H445.852L444.905 158.728L445.267 157.615Z" fill="white"/>
<path d="M445.267 159.769L445.629 160.882L444.682 160.194H445.852L444.905 160.882L445.267 159.769Z" fill="white"/>
<path d="M445.267 161.923L445.629 163.036L444.682 162.348H445.852L444.905 163.036L445.267 161.923Z" fill="white"/>
<path d="M445.267 164.077L445.629 165.19L444.682 164.502H445.852L444.905 165.19L445.267 164.077Z" fill="white"/>
<path d="M446.534 156.539L446.895 157.652L445.948 156.964H447.119L446.172 157.652L446.534 156.539Z" fill="white"/>
<path d="M446.534 158.692L446.895 159.806L445.948 159.118H447.119L446.172 159.806L446.534 158.692Z" fill="white"/>
<path d="M446.534 160.846L446.895 161.959L445.948 161.271H447.119L446.172 161.959L446.534 160.846Z" fill="white"/>
<path d="M446.534 163L446.895 164.113L445.948 163.425H447.119L446.172 164.113L446.534 163Z" fill="white"/>
<path d="M447.8 155.461L448.162 156.575L447.215 155.887H448.385L447.438 156.575L447.8 155.461Z" fill="white"/>
<path d="M447.8 157.615L448.162 158.728L447.215 158.04H448.385L447.438 158.728L447.8 157.615Z" fill="white"/>
<path d="M447.8 159.769L448.162 160.882L447.215 160.194H448.385L447.438 160.882L447.8 159.769Z" fill="white"/>
<path d="M447.8 161.923L448.162 163.036L447.215 162.348H448.385L447.438 163.036L447.8 161.923Z" fill="white"/>
<path d="M447.8 164.077L448.162 165.19L447.215 164.502H448.385L447.438 165.19L447.8 164.077Z" fill="white"/>
<path d="M449.067 156.539L449.428 157.652L448.481 156.964H449.652L448.705 157.652L449.067 156.539Z" fill="white"/>
<path d="M449.067 158.692L449.428 159.806L448.481 159.118H449.652L448.705 159.806L449.067 158.692Z" fill="white"/>
<path d="M449.067 160.846L449.428 161.959L448.481 161.271H449.652L448.705 161.959L449.067 160.846Z" fill="white"/>
<path d="M449.067 163L449.428 164.113L448.481 163.425H449.652L448.705 164.113L449.067 163Z" fill="white"/>
<path d="M450.333 155.461L450.695 156.575L449.748 155.887H450.919L449.972 156.575L450.333 155.461Z" fill="white"/>
<path d="M450.333 157.615L450.695 158.728L449.748 158.04H450.919L449.972 158.728L450.333 157.615Z" fill="white"/>
<path d="M450.333 159.769L450.695 160.882L449.748 160.194H450.919L449.972 160.882L450.333 159.769Z" fill="white"/>
<path d="M450.333 161.923L450.695 163.036L449.748 162.348H450.919L449.972 163.036L450.333 161.923Z" fill="white"/>
<path d="M450.333 164.077L450.695 165.19L449.748 164.502H450.919L449.972 165.19L450.333 164.077Z" fill="white"/>
<path d="M451.6 156.539L451.962 157.652L451.015 156.964H452.185L451.238 157.652L451.6 156.539Z" fill="white"/>
<path d="M451.6 158.692L451.962 159.806L451.015 159.118H452.185L451.238 159.806L451.6 158.692Z" fill="white"/>
<path d="M451.6 160.846L451.962 161.959L451.015 161.271H452.185L451.238 161.959L451.6 160.846Z" fill="white"/>
<path d="M451.6 163L451.962 164.113L451.015 163.425H452.185L451.238 164.113L451.6 163Z" fill="white"/>
<path d="M452.867 155.461L453.228 156.575L452.281 155.887H453.452L452.505 156.575L452.867 155.461Z" fill="white"/>
<path d="M452.867 157.615L453.228 158.728L452.281 158.04H453.452L452.505 158.728L452.867 157.615Z" fill="white"/>
<path d="M452.867 159.769L453.228 160.882L452.281 160.194H453.452L452.505 160.882L452.867 159.769Z" fill="white"/>
<path d="M452.867 161.923L453.228 163.036L452.281 162.348H453.452L452.505 163.036L452.867 161.923Z" fill="white"/>
<path d="M452.867 164.077L453.228 165.19L452.281 164.502H453.452L452.505 165.19L452.867 164.077Z" fill="white"/>
<path d="M454.133 156.539L454.495 157.652L453.548 156.964H454.718L453.771 157.652L454.133 156.539Z" fill="white"/>
<path d="M454.133 158.692L454.495 159.806L453.548 159.118H454.718L453.771 159.806L454.133 158.692Z" fill="white"/>
<path d="M454.133 160.846L454.495 161.959L453.548 161.271H454.718L453.771 161.959L454.133 160.846Z" fill="white"/>
<path d="M454.133 163L454.495 164.113L453.548 163.425H454.718L453.771 164.113L454.133 163Z" fill="white"/>
<path d="M455.4 155.461L455.761 156.575L454.814 155.887H455.985L455.038 156.575L455.4 155.461Z" fill="white"/>
<path d="M455.4 157.615L455.761 158.728L454.814 158.04H455.985L455.038 158.728L455.4 157.615Z" fill="white"/>
<path d="M455.4 159.769L455.761 160.882L454.814 160.194H455.985L455.038 160.882L455.4 159.769Z" fill="white"/>
<path d="M455.4 161.923L455.761 163.036L454.814 162.348H455.985L455.038 163.036L455.4 161.923Z" fill="white"/>
<path d="M455.4 164.077L455.761 165.19L454.814 164.502H455.985L455.038 165.19L455.4 164.077Z" fill="white"/>
<path d="M456.666 156.539L457.028 157.652L456.081 156.964H457.252L456.305 157.652L456.666 156.539Z" fill="white"/>
<path d="M456.666 158.692L457.028 159.806L456.081 159.118H457.252L456.305 159.806L456.666 158.692Z" fill="white"/>
<path d="M456.666 160.846L457.028 161.959L456.081 161.271H457.252L456.305 161.959L456.666 160.846Z" fill="white"/>
<path d="M456.666 163L457.028 164.113L456.081 163.425H457.252L456.305 164.113L456.666 163Z" fill="white"/>
<path d="M457.933 155.461L458.295 156.575L457.348 155.887H458.518L457.571 156.575L457.933 155.461Z" fill="white"/>
<path d="M457.933 157.615L458.295 158.728L457.348 158.04H458.518L457.571 158.728L457.933 157.615Z" fill="white"/>
<path d="M457.933 159.769L458.295 160.882L457.348 160.194H458.518L457.571 160.882L457.933 159.769Z" fill="white"/>
<path d="M457.933 161.923L458.295 163.036L457.348 162.348H458.518L457.571 163.036L457.933 161.923Z" fill="white"/>
<path d="M457.933 164.077L458.295 165.19L457.348 164.502H458.518L457.571 165.19L457.933 164.077Z" fill="white"/>
</g>
<rect x="443.5" y="154.5" width="39" height="21" stroke="#BDBEBD"/>
<g clip-path="url(#clip27_302_5935)">
<path d="M553 155H593V175H553V155Z" fill="#008751"/>
<path d="M566.333 155H579.666V175H566.333V155Z" fill="white"/>
</g>
<rect x="552.5" y="154.5" width="41" height="21" stroke="#BDBEBD"/>
<g clip-path="url(#clip28_302_5935)">
<path d="M663 155H703V175H663V155Z" fill="#DA121A"/>
<path d="M663 155H703V168.333H663V155Z" fill="#FCDD09"/>
<path d="M663 155H703V161.667H663V155Z" fill="#078930"/>
<path d="M683 171.667C686.682 171.667 689.666 168.682 689.666 165C689.666 161.318 686.682 158.333 683 158.333C679.318 158.333 676.333 161.318 676.333 165C676.333 168.682 679.318 171.667 683 171.667Z" fill="#0F47AF"/>
<path d="M683 159.667L682.766 160.386L683.73 163.352H682.445L682.301 163.796H686.421L687.033 163.352H684.197L683 159.667Z" fill="#FCDD09"/>
<path d="M684.437 163.022L686.135 160.685L684.437 163.022Z" fill="black"/>
<path d="M684.437 163.022L686.135 160.685" stroke="#FCDD09" stroke-width="0.222222"/>
<path d="M688.073 163.352L687.316 163.352L684.793 165.185L684.396 163.963L683.929 163.963L685.202 167.882L685.814 168.326L684.938 165.63L688.073 163.352Z" fill="#FCDD09"/>
<path d="M685.325 165.755L688.073 166.648L685.325 165.755Z" fill="black"/>
<path d="M685.325 165.755L688.073 166.648" stroke="#FCDD09" stroke-width="0.222222"/>
<path d="M686.134 169.315L685.901 168.596L683.378 166.763L684.417 166.007L684.273 165.563L680.94 167.985L680.706 168.704L683 167.037L686.134 169.315Z" fill="#FCDD09"/>
<path d="M683 167.444V170.333V167.444Z" fill="black"/>
<path d="M683 167.444V170.333" stroke="#FCDD09" stroke-width="0.222222"/>
<path d="M679.865 169.315L680.477 168.87L681.44 165.904L682.48 166.659L682.858 166.385L679.525 163.963L678.769 163.963L681.062 165.629L679.865 169.315Z" fill="#FCDD09"/>
<path d="M680.675 165.755L677.927 166.648L680.675 165.755Z" fill="black"/>
<path d="M680.675 165.755L677.927 166.648" stroke="#FCDD09" stroke-width="0.222222"/>
<path d="M677.928 163.352L678.54 163.797L681.658 163.797L681.261 165.019L681.639 165.293L682.913 161.375L682.679 160.656L681.803 163.352L677.928 163.352Z" fill="#FCDD09"/>
<path d="M681.563 163.022L679.865 160.685L681.563 163.022Z" fill="black"/>
<path d="M681.563 163.022L679.865 160.685" stroke="#FCDD09" stroke-width="0.222222"/>
</g>
<rect x="662.5" y="154.5" width="41" height="21" stroke="#BDBEBD"/>
<g clip-path="url(#clip29_302_5935)">
<path d="M773 155H813V165L779.222 174.778L773 155Z" fill="#0038A8"/>
<path d="M779.222 165H813V175H773L779.222 165Z" fill="#CE1126"/>
<path d="M790.32 165L773 175V155L790.32 165Z" fill="white"/>
<path d="M779.223 167C780.327 167 781.223 166.105 781.223 165C781.223 163.895 780.327 163 779.223 163C778.118 163 777.223 163.895 777.223 165C777.223 166.105 778.118 167 779.223 167Z" fill="#FCD116"/>
<path d="M779.222 165L778.519 161.465L778.729 161.254L779.222 165ZM779.222 165L778.962 161.038L779.222 160.778L779.481 161.038L779.222 165ZM779.222 165L779.715 161.254L779.925 161.465L779.222 165Z" fill="#FCD116"/>
<path d="M779.222 165L779.925 168.535L779.715 168.746L779.222 165ZM779.222 165L779.481 168.962L779.222 169.222L778.962 168.962L779.222 165ZM779.222 165L778.729 168.746L778.519 168.535L779.222 165Z" fill="#FCD116"/>
<path d="M779.222 165L782.757 164.297L782.968 164.507L779.222 165ZM779.222 165L783.185 164.74L783.444 165L783.185 165.26L779.222 165ZM779.222 165L782.968 165.493L782.757 165.703L779.222 165Z" fill="#FCD116"/>
<path d="M779.222 165L775.687 165.703L775.477 165.493L779.222 165ZM779.222 165L775.26 165.26L775 165L775.26 164.74L779.222 165ZM779.222 165L775.477 164.507L775.687 164.297L779.222 165Z" fill="#FCD116"/>
<path d="M779.223 165L781.225 162.003L781.522 162.003L779.223 165ZM779.223 165L781.841 162.014L782.208 162.014L782.208 162.382L779.223 165ZM779.223 165L782.22 162.7L782.22 162.997L779.223 165Z" fill="#FCD116"/>
<path d="M779.223 165L777.22 167.997L776.923 167.997L779.223 165ZM779.223 165L776.605 167.985L776.237 167.985L776.237 167.618L779.223 165ZM779.223 165L776.226 167.3L776.226 167.002L779.223 165Z" fill="#FCD116"/>
<path d="M779.222 165L782.219 167.003L782.22 167.3L779.222 165ZM779.222 165L782.208 167.618L782.208 167.985L781.841 167.985L779.222 165ZM779.222 165L781.522 167.997L781.225 167.997L779.222 165Z" fill="#FCD116"/>
<path d="M779.222 165L776.225 162.997L776.225 162.7L779.222 165ZM779.222 165L776.236 162.382L776.236 162.015L776.604 162.015L779.222 165ZM779.222 165L776.922 162.003L777.219 162.003L779.222 165Z" fill="#FCD116"/>
<path d="M788.321 165L787.569 165.261L787.553 166.057L787.072 165.423L786.311 165.653L786.765 165L786.311 164.347L787.072 164.577L787.553 163.943L787.569 164.739L788.321 165Z" fill="#FCD116"/>
<path d="M774 173.268L774.149 172.487L773.469 172.075L774.258 171.976L774.439 171.201L774.778 171.921L775.57 171.854L774.99 172.398L775.299 173.131L774.602 172.748L774 173.268Z" fill="#FCD116"/>
<path d="M774 156.732L774.602 157.252L775.299 156.869L774.99 157.602L775.571 158.146L774.778 158.079L774.439 158.799L774.258 158.024L773.469 157.925L774.149 157.513L774 156.732Z" fill="#FCD116"/>
</g>
<rect x="772.5" y="154.5" width="41" height="21" stroke="#BDBEBD"/>
<g clip-path="url(#clip30_302_5935)">
<path d="M918 155H888V175H918V155Z" fill="#A51931"/>
<path d="M918 158.333H888V171.667H918V158.333Z" fill="#F4F5F8"/>
<path d="M918 161.667H888V168.333H918V161.667Z" fill="#2D2A4A"/>
</g>
<rect x="887.5" y="154.5" width="31" height="21" stroke="#BDBEBD"/>
<rect x="733" y="20" width="10" height="21" fill="white"/>
<rect x="843" y="20" width="10" height="21" fill="white"/>
<rect x="623" y="20" width="10" height="21" fill="white"/>
<defs>
<clipPath id="clip0_302_5935">
<rect width="10.8054" height="10.8054" fill="white" transform="matrix(-0.694136 0.719844 -0.694136 -0.719844 141.127 20.5)"/>
</clipPath>
<clipPath id="clip1_302_5935">
<rect width="10.8054" height="10.8054" fill="white" transform="matrix(-1 0 -0.0363517 -0.999339 250.474 25.8994)"/>
</clipPath>
<clipPath id="clip2_302_5935">
<rect width="10.8054" height="10.8054" fill="white" transform="matrix(-0.694156 -0.719825 0.744582 -0.66753 355.853 27.9956)"/>
</clipPath>
<clipPath id="clip3_302_5935">
<rect width="10.8054" height="10.8054" fill="white" transform="matrix(-1 0 -0.0363516 -0.999339 472.974 25.8994)"/>
</clipPath>
<clipPath id="clip4_302_5935">
<rect width="10.8054" height="10.8054" fill="white" transform="matrix(-0.694136 0.719844 -0.694136 -0.719844 576.127 20.5)"/>
</clipPath>
<clipPath id="clip5_302_5935">
<rect width="10.8054" height="10.8054" fill="white" transform="matrix(-0.694136 -0.719844 0.694136 -0.719844 679.875 28.2783)"/>
</clipPath>
<clipPath id="clip6_302_5935">
<rect width="10.8054" height="10.8054" fill="white" transform="matrix(-0.694136 0.719844 -0.694136 -0.719844 798.625 20.5)"/>
</clipPath>
<clipPath id="clip7_302_5935">
<rect width="10.8054" height="10.8054" fill="white" transform="matrix(-0.694136 -0.719844 0.694136 -0.719844 902.375 28.2783)"/>
</clipPath>
<clipPath id="clip8_302_5935">
<rect width="11.3137" height="11.3137" fill="white" transform="translate(627.998 52) rotate(45)"/>
</clipPath>
<clipPath id="clip9_302_5935">
<rect width="10.0057" height="11.0063" fill="white" transform="matrix(0.707508 -0.706705 0.707508 0.706705 841.002 60.0713)"/>
</clipPath>
<clipPath id="clip10_302_5935">
<rect width="11.3137" height="11.3137" fill="white" transform="translate(237.344 84.2012)"/>
</clipPath>
<clipPath id="clip11_302_5935">
<rect width="11.3137" height="11.3137" fill="white" transform="translate(345 89.8579) rotate(-45)"/>
</clipPath>
<clipPath id="clip12_302_5935">
<rect width="10.0057" height="11.0063" fill="white" transform="matrix(-1 0 -0.00113569 -0.999999 468.441 95.9282)"/>
</clipPath>
<clipPath id="clip13_302_5935">
<rect width="11.3137" height="11.3137" fill="white" transform="translate(675.001 89.8579) rotate(-45)"/>
</clipPath>
<clipPath id="clip14_302_5935">
<rect width="10.0057" height="11.0063" fill="white" transform="matrix(0.707508 -0.706705 0.707508 0.706705 895.999 90.0713)"/>
</clipPath>
<clipPath id="clip15_302_5935">
<rect width="10" height="11" fill="white" transform="translate(133.354 122.791) rotate(45)"/>
</clipPath>
<clipPath id="clip16_302_5935">
<rect width="10" height="11" fill="white" transform="translate(238 124.716)"/>
</clipPath>
<clipPath id="clip17_302_5935">
<rect width="10.253" height="10.7413" fill="white" transform="matrix(0.707107 -0.707107 0.740738 0.671794 345.396 130.233)"/>
</clipPath>
<clipPath id="clip18_302_5935">
<rect width="10" height="11" fill="white" transform="translate(458 124.716)"/>
</clipPath>
<clipPath id="clip19_302_5935">
<rect width="10" height="11" fill="white" transform="translate(573.354 122.791) rotate(45)"/>
</clipPath>
<clipPath id="clip20_302_5935">
<rect width="10" height="11" fill="white" transform="translate(675.575 129.862) rotate(-45)"/>
</clipPath>
<clipPath id="clip21_302_5935">
<rect width="10.253" height="10.7413" fill="white" transform="matrix(0.689655 0.724138 -0.689655 0.724138 793.168 122.614)"/>
</clipPath>
<clipPath id="clip22_302_5935">
<rect width="10" height="11" fill="white" transform="translate(895.575 129.862) rotate(-45)"/>
</clipPath>
<clipPath id="clip23_302_5935">
<rect x="116.333" y="155" width="33.3333" height="20" fill="white"/>
</clipPath>
<clipPath id="clip24_302_5935">
<rect x="231.462" y="155" width="23.0769" height="20" fill="white"/>
</clipPath>
<clipPath id="clip25_302_5935">
<rect x="338" y="155" width="30" height="20" fill="white"/>
</clipPath>
<clipPath id="clip26_302_5935">
<rect x="444" y="155" width="38" height="20" fill="white"/>
</clipPath>
<clipPath id="clip27_302_5935">
<rect x="553" y="155" width="40" height="20" fill="white"/>
</clipPath>
<clipPath id="clip28_302_5935">
<rect x="663" y="155" width="40" height="20" fill="white"/>
</clipPath>
<clipPath id="clip29_302_5935">
<rect x="773" y="155" width="40" height="20" fill="white"/>
</clipPath>
<clipPath id="clip30_302_5935">
<rect x="888" y="155" width="30" height="20" fill="white"/>
</clipPath>
</defs>
</svg>
