<svg width="32" height="32" viewBox="0 0 32 32" fill="none" xmlns="http://www.w3.org/2000/svg">
<g clip-path="url(#clip0_13055_9)">
<circle cx="16" cy="16" r="16" fill="white"/>
<g clip-path="url(#clip1_13055_9)">
<rect x="6.2002" y="7.85986" width="22" height="13.64" rx="1.98" fill="black"/>
<rect x="3.78027" y="10.0601" width="22.44" height="14.08" rx="1.98" fill="white"/>
<rect x="4" y="10.2803" width="22" height="13.64" rx="1.98" fill="black"/>
<path d="M18.2088 17.6367L13.3093 20.4796C12.8935 20.7206 12.3599 20.4287 12.3599 19.9429V14.2572C12.3599 13.7721 12.8927 13.4795 13.3093 13.7213L18.2088 16.5641C18.3034 16.6181 18.382 16.6962 18.4367 16.7903C18.4914 16.8845 18.5202 16.9915 18.5202 17.1004C18.5202 17.2093 18.4914 17.3163 18.4367 17.4105C18.382 17.5047 18.3034 17.5827 18.2088 17.6367Z" fill="white"/>
</g>
</g>
<defs>
<clipPath id="clip0_13055_9">
<rect width="32" height="32" fill="white"/>
</clipPath>
<clipPath id="clip1_13055_9">
<rect width="24.2" height="22" fill="white" transform="translate(4 5)"/>
</clipPath>
</defs>
</svg>
