<svg width="3000" height="2000" viewBox="0 0 3000 2000" fill="none" xmlns="http://www.w3.org/2000/svg">
<rect width="3000" height="2000" fill="#003399"/>
<path d="M1500 222.222L1465.66 327.895L1518.5 345.063L1500 222.222Z" fill="#FFCC00"/>
<path d="M1500 222.222L1534.34 327.895L1481.5 345.063L1500 222.222Z" fill="#FFCC00"/>
<path d="M1605.67 298.998H1494.56V354.554L1605.67 298.998Z" fill="#FFCC00"/>
<path d="M1605.67 298.998L1515.78 364.308L1483.13 319.362L1605.67 298.998Z" fill="#FFCC00"/>
<path d="M1565.31 423.224L1530.97 317.551L1478.14 334.719L1565.31 423.224Z" fill="#FFCC00"/>
<path d="M1565.31 423.224L1475.42 357.915L1508.07 312.969L1565.31 423.224Z" fill="#FFCC00"/>
<path d="M1394.33 298.998H1505.44V354.554L1394.33 298.998Z" fill="#FFCC00"/>
<path d="M1394.33 298.998L1484.22 364.308L1516.87 319.362L1394.33 298.998Z" fill="#FFCC00"/>
<path d="M1434.69 423.224L1469.03 317.551L1521.86 334.719L1434.69 423.224Z" fill="#FFCC00"/>
<path d="M1434.69 423.224L1524.58 357.915L1491.93 312.969L1434.69 423.224Z" fill="#FFCC00"/>
<path d="M1500 1555.56L1465.66 1661.23L1518.5 1678.4L1500 1555.56Z" fill="#FFCC00"/>
<path d="M1500 1555.56L1534.34 1661.23L1481.5 1678.4L1500 1555.56Z" fill="#FFCC00"/>
<path d="M1605.67 1632.33H1494.56V1687.89L1605.67 1632.33Z" fill="#FFCC00"/>
<path d="M1605.67 1632.33L1515.78 1697.64L1483.13 1652.7L1605.67 1632.33Z" fill="#FFCC00"/>
<path d="M1565.31 1756.56L1530.97 1650.88L1478.14 1668.05L1565.31 1756.56Z" fill="#FFCC00"/>
<path d="M1565.31 1756.56L1475.42 1691.25L1508.07 1646.3L1565.31 1756.56Z" fill="#FFCC00"/>
<path d="M1394.33 1632.33H1505.44V1687.89L1394.33 1632.33Z" fill="#FFCC00"/>
<path d="M1394.33 1632.33L1484.22 1697.64L1516.87 1652.7L1394.33 1632.33Z" fill="#FFCC00"/>
<path d="M1434.69 1756.56L1469.03 1650.88L1521.86 1668.05L1434.69 1756.56Z" fill="#FFCC00"/>
<path d="M1434.69 1756.56L1524.58 1691.25L1491.93 1646.3L1434.69 1756.56Z" fill="#FFCC00"/>
<path d="M833.334 888.889L798.999 994.562L851.835 1011.73L833.334 888.889Z" fill="#FFCC00"/>
<path d="M833.334 888.889L867.669 994.562L814.833 1011.73L833.334 888.889Z" fill="#FFCC00"/>
<path d="M939.005 965.665H827.894V1021.22L939.005 965.665Z" fill="#FFCC00"/>
<path d="M939.005 965.665L849.114 1030.97L816.459 986.029L939.005 965.665Z" fill="#FFCC00"/>
<path d="M898.641 1089.89L864.305 984.218L811.469 1001.39L898.641 1089.89Z" fill="#FFCC00"/>
<path d="M898.641 1089.89L808.75 1024.58L841.405 979.636L898.641 1089.89Z" fill="#FFCC00"/>
<path d="M727.663 965.665H838.774V1021.22L727.663 965.665Z" fill="#FFCC00"/>
<path d="M727.663 965.665L817.554 1030.97L850.209 986.029L727.663 965.665Z" fill="#FFCC00"/>
<path d="M768.026 1089.89L802.362 984.218L855.198 1001.39L768.026 1089.89Z" fill="#FFCC00"/>
<path d="M768.026 1089.89L857.917 1024.58L825.262 979.636L768.026 1089.89Z" fill="#FFCC00"/>
<path d="M1101.36 512.541L1191.25 447.231L1158.59 402.286L1101.36 512.541Z" fill="#FFCC00"/>
<path d="M1101.36 512.541L1135.69 406.868L1188.53 424.035L1101.36 512.541Z" fill="#FFCC00"/>
<path d="M1060.99 388.314L1150.88 453.624L1183.54 408.679L1060.99 388.314Z" fill="#FFCC00"/>
<path d="M1060.99 388.314H1172.11V443.87L1060.99 388.314Z" fill="#FFCC00"/>
<path d="M1166.67 311.539L1132.33 417.212L1185.17 434.379L1166.67 311.539Z" fill="#FFCC00"/>
<path d="M1166.67 311.539L1201 417.212L1148.17 434.379L1166.67 311.539Z" fill="#FFCC00"/>
<path d="M1231.98 512.541L1142.09 447.231L1174.74 402.286L1231.98 512.541Z" fill="#FFCC00"/>
<path d="M1231.98 512.541L1197.64 406.868L1144.81 424.035L1231.98 512.541Z" fill="#FFCC00"/>
<path d="M1272.34 388.314L1182.45 453.624L1149.8 408.679L1272.34 388.314Z" fill="#FFCC00"/>
<path d="M1272.34 388.314H1161.23V443.87L1272.34 388.314Z" fill="#FFCC00"/>
<path d="M987.958 756.557L953.623 650.885L900.786 668.052L987.958 756.557Z" fill="#FFCC00"/>
<path d="M987.958 756.557L898.067 691.248L930.722 646.303L987.958 756.557Z" fill="#FFCC00"/>
<path d="M857.341 756.557L947.232 691.248L914.577 646.303L857.341 756.557Z" fill="#FFCC00"/>
<path d="M857.341 756.557L891.676 650.884L944.513 668.052L857.341 756.557Z" fill="#FFCC00"/>
<path d="M816.978 632.331L906.868 697.641L939.523 652.696L816.978 632.331Z" fill="#FFCC00"/>
<path d="M816.978 632.331H928.089V687.887L816.978 632.331Z" fill="#FFCC00"/>
<path d="M1028.33 632.332L938.434 697.641L905.78 652.696L1028.33 632.332Z" fill="#FFCC00"/>
<path d="M1028.33 632.332H917.214V687.887L1028.33 632.332Z" fill="#FFCC00"/>
<path d="M922.651 555.556L956.987 661.228L904.15 678.396L922.651 555.556Z" fill="#FFCC00"/>
<path d="M922.651 555.556L888.316 661.228L941.153 678.396L922.651 555.556Z" fill="#FFCC00"/>
<path d="M1028.32 1299H917.211V1354.55L1028.32 1299Z" fill="#FFCC00"/>
<path d="M1028.32 1299L938.431 1364.31L905.777 1319.36L1028.32 1299Z" fill="#FFCC00"/>
<path d="M987.96 1423.22L953.625 1317.55L900.788 1334.72L987.96 1423.22Z" fill="#FFCC00"/>
<path d="M987.96 1423.22L898.069 1357.91L930.724 1312.97L987.96 1423.22Z" fill="#FFCC00"/>
<path d="M857.342 1423.22L947.233 1357.91L914.578 1312.97L857.342 1423.22Z" fill="#FFCC00"/>
<path d="M857.342 1423.22L891.677 1317.55L944.513 1334.72L857.342 1423.22Z" fill="#FFCC00"/>
<path d="M922.65 1222.22L956.986 1327.9L904.149 1345.06L922.65 1222.22Z" fill="#FFCC00"/>
<path d="M922.65 1222.22L888.315 1327.9L941.152 1345.06L922.65 1222.22Z" fill="#FFCC00"/>
<path d="M816.979 1299H928.09V1354.55L816.979 1299Z" fill="#FFCC00"/>
<path d="M816.979 1299L906.869 1364.31L939.524 1319.36L816.979 1299Z" fill="#FFCC00"/>
<path d="M1272.34 1543.02H1161.23V1598.57L1272.34 1543.02Z" fill="#FFCC00"/>
<path d="M1272.34 1543.02L1182.45 1608.32L1149.79 1563.38L1272.34 1543.02Z" fill="#FFCC00"/>
<path d="M1231.97 1667.24L1197.64 1561.57L1144.8 1578.74L1231.97 1667.24Z" fill="#FFCC00"/>
<path d="M1231.97 1667.24L1142.08 1601.93L1174.74 1556.99L1231.97 1667.24Z" fill="#FFCC00"/>
<path d="M1101.36 1667.24L1191.25 1601.93L1158.59 1556.99L1101.36 1667.24Z" fill="#FFCC00"/>
<path d="M1101.36 1667.24L1135.69 1561.57L1188.53 1578.74L1101.36 1667.24Z" fill="#FFCC00"/>
<path d="M1166.67 1466.24L1201 1571.91L1148.16 1589.08L1166.67 1466.24Z" fill="#FFCC00"/>
<path d="M1166.67 1466.24L1132.33 1571.91L1185.17 1589.08L1166.67 1466.24Z" fill="#FFCC00"/>
<path d="M1060.99 1543.02H1172.1V1598.57L1060.99 1543.02Z" fill="#FFCC00"/>
<path d="M1060.99 1543.02L1150.88 1608.32L1183.54 1563.38L1060.99 1543.02Z" fill="#FFCC00"/>
<path d="M2166.67 888.889L2201.01 994.562L2148.17 1011.73L2166.67 888.889Z" fill="#FFCC00"/>
<path d="M2166.67 888.889L2132.33 994.562L2185.17 1011.73L2166.67 888.889Z" fill="#FFCC00"/>
<path d="M2061 965.665H2172.11V1021.22L2061 965.665Z" fill="#FFCC00"/>
<path d="M2061 965.665L2150.89 1030.97L2183.54 986.029L2061 965.665Z" fill="#FFCC00"/>
<path d="M2101.36 1089.89L2135.7 984.218L2188.53 1001.39L2101.36 1089.89Z" fill="#FFCC00"/>
<path d="M2101.36 1089.89L2191.25 1024.58L2158.6 979.636L2101.36 1089.89Z" fill="#FFCC00"/>
<path d="M2272.34 965.665H2161.23V1021.22L2272.34 965.665Z" fill="#FFCC00"/>
<path d="M2272.34 965.665L2182.45 1030.97L2149.8 986.029L2272.34 965.665Z" fill="#FFCC00"/>
<path d="M2231.98 1089.89L2197.64 984.218L2144.8 1001.39L2231.98 1089.89Z" fill="#FFCC00"/>
<path d="M2231.98 1089.89L2142.09 1024.58L2174.74 979.636L2231.98 1089.89Z" fill="#FFCC00"/>
<path d="M1898.65 512.541L1808.76 447.231L1841.41 402.286L1898.65 512.541Z" fill="#FFCC00"/>
<path d="M1898.65 512.541L1864.31 406.868L1811.47 424.035L1898.65 512.541Z" fill="#FFCC00"/>
<path d="M1939.01 388.314L1849.12 453.624L1816.46 408.678L1939.01 388.314Z" fill="#FFCC00"/>
<path d="M1939.01 388.314H1827.9V443.87L1939.01 388.314Z" fill="#FFCC00"/>
<path d="M1833.33 311.538L1867.67 417.211L1814.83 434.379L1833.33 311.538Z" fill="#FFCC00"/>
<path d="M1833.33 311.538L1799 417.211L1851.84 434.379L1833.33 311.538Z" fill="#FFCC00"/>
<path d="M1768.03 512.541L1857.92 447.231L1825.26 402.286L1768.03 512.541Z" fill="#FFCC00"/>
<path d="M1768.03 512.541L1802.36 406.868L1855.2 424.035L1768.03 512.541Z" fill="#FFCC00"/>
<path d="M1727.66 388.314L1817.55 453.624L1850.21 408.679L1727.66 388.314Z" fill="#FFCC00"/>
<path d="M1727.66 388.314H1838.77V443.87L1727.66 388.314Z" fill="#FFCC00"/>
<path d="M2012.04 756.557L2046.38 650.884L2099.22 668.052L2012.04 756.557Z" fill="#FFCC00"/>
<path d="M2012.04 756.557L2101.93 691.248L2069.28 646.303L2012.04 756.557Z" fill="#FFCC00"/>
<path d="M2142.66 756.557L2052.77 691.248L2085.43 646.302L2142.66 756.557Z" fill="#FFCC00"/>
<path d="M2142.66 756.557L2108.33 650.884L2055.49 668.052L2142.66 756.557Z" fill="#FFCC00"/>
<path d="M2183.02 632.331L2093.13 697.641L2060.48 652.695L2183.02 632.331Z" fill="#FFCC00"/>
<path d="M2183.02 632.331H2071.91V687.887L2183.02 632.331Z" fill="#FFCC00"/>
<path d="M1971.68 632.331L2061.57 697.641L2094.22 652.695L1971.68 632.331Z" fill="#FFCC00"/>
<path d="M1971.68 632.331H2082.79V687.887L1971.68 632.331Z" fill="#FFCC00"/>
<path d="M2077.35 555.555L2043.02 661.228L2095.85 678.396L2077.35 555.555Z" fill="#FFCC00"/>
<path d="M2077.35 555.555L2111.69 661.228L2058.85 678.396L2077.35 555.555Z" fill="#FFCC00"/>
<path d="M1971.68 1299H2082.79V1354.55L1971.68 1299Z" fill="#FFCC00"/>
<path d="M1971.68 1299L2061.57 1364.31L2094.22 1319.36L1971.68 1299Z" fill="#FFCC00"/>
<path d="M2012.04 1423.22L2046.38 1317.55L2099.22 1334.72L2012.04 1423.22Z" fill="#FFCC00"/>
<path d="M2012.04 1423.22L2101.93 1357.91L2069.28 1312.97L2012.04 1423.22Z" fill="#FFCC00"/>
<path d="M2142.66 1423.22L2052.77 1357.91L2085.43 1312.97L2142.66 1423.22Z" fill="#FFCC00"/>
<path d="M2142.66 1423.22L2108.33 1317.55L2055.49 1334.72L2142.66 1423.22Z" fill="#FFCC00"/>
<path d="M2077.35 1222.22L2043.02 1327.9L2095.85 1345.06L2077.35 1222.22Z" fill="#FFCC00"/>
<path d="M2077.35 1222.22L2111.69 1327.9L2058.85 1345.06L2077.35 1222.22Z" fill="#FFCC00"/>
<path d="M2183.02 1299H2071.91V1354.55L2183.02 1299Z" fill="#FFCC00"/>
<path d="M2183.02 1299L2093.13 1364.31L2060.48 1319.36L2183.02 1299Z" fill="#FFCC00"/>
<path d="M1727.66 1543.02H1838.77V1598.57L1727.66 1543.02Z" fill="#FFCC00"/>
<path d="M1727.66 1543.02L1817.55 1608.32L1850.21 1563.38L1727.66 1543.02Z" fill="#FFCC00"/>
<path d="M1768.03 1667.24L1802.36 1561.57L1855.2 1578.74L1768.03 1667.24Z" fill="#FFCC00"/>
<path d="M1768.03 1667.24L1857.92 1601.93L1825.26 1556.99L1768.03 1667.24Z" fill="#FFCC00"/>
<path d="M1898.64 1667.24L1808.75 1601.93L1841.41 1556.99L1898.64 1667.24Z" fill="#FFCC00"/>
<path d="M1898.64 1667.24L1864.31 1561.57L1811.47 1578.74L1898.64 1667.24Z" fill="#FFCC00"/>
<path d="M1833.33 1466.24L1799 1571.91L1851.84 1589.08L1833.33 1466.24Z" fill="#FFCC00"/>
<path d="M1833.33 1466.24L1867.67 1571.91L1814.83 1589.08L1833.33 1466.24Z" fill="#FFCC00"/>
<path d="M1939.01 1543.02H1827.9V1598.57L1939.01 1543.02Z" fill="#FFCC00"/>
<path d="M1939.01 1543.02L1849.12 1608.32L1816.46 1563.38L1939.01 1543.02Z" fill="#FFCC00"/>
</svg>
